<svg width="176" height="56" viewBox="0 0 176 56" fill="none" xmlns="http://www.w3.org/2000/svg">
<path fill-rule="evenodd" clip-rule="evenodd" d="M41.5506 34.1496C41.3018 34.5961 40.6469 35.561 40.0216 35.4241C38.4611 36.7534 36.7278 36.8518 34.7321 36.8518C33.8619 36.8518 33.0343 36.7598 32.1789 36.7289C31.814 36.698 31.2951 36.5907 30.958 36.5907C32.4174 38.3867 33.0343 40.0913 32.0667 42.3476C30.4391 46.1856 25.9914 47.9513 21.9647 47.8592C12.2687 47.6265 11.4591 43.2816 11.26 35.1933C11.2155 33.2472 11.1381 32.2824 11.7827 31.0356C12.2107 30.2083 13.6514 27.9078 14.7395 28.2382C15.4833 28.4684 14.3044 29.8198 14.1078 30.1263C13.5727 30.9209 13.2137 32.4306 14.5003 30.4946C15.2564 29.3059 16.7931 28.4129 17.1522 27.8384C17.0258 27.7312 16.3806 27.332 16.1698 27.1782C15.8191 26.948 15.5665 26.6869 15.2861 26.3949C14.6267 25.7196 14.3882 24.8903 14.8368 24.015C14.3598 24.061 13.3078 24.9206 11.764 23.2015C11.2309 22.6182 11.4275 22.9253 11.4275 22.2039C9.89793 21.5127 8.88786 20.6841 9.00001 18.9032C9.11217 17.4604 9.82767 16.0169 11.0343 15.1574C12.7457 13.9598 15.1455 13.975 17.1657 14.236C17.5724 14.2821 18.0494 14.4202 18.4426 14.4359C18.9196 14.4668 19.2426 14.2669 19.7615 14.313C20.2668 14.3439 20.3932 14.528 20.7574 14.7891C21.585 14.1597 22.2025 13.9598 23.1005 14.6358C23.4369 14.8969 23.7322 14.4057 24.1524 14.2518C24.7139 14.0525 24.9524 14.651 25.3307 14.6049C25.7375 14.5438 26.2989 14.3899 26.734 14.313C28.1792 14.0368 29.7784 13.9138 31.2236 14.359C32.7667 14.8351 34.1275 16.155 34.6747 17.6445C35.0112 18.5658 35.0815 19.4714 34.7025 20.4079C34.3234 21.3292 33.7343 21.5745 32.8783 21.9428L32.9343 22.8181C31.6574 23.3863 32.233 23.6625 31.5594 23.8927C30.6473 24.2149 30.3669 24.5069 29.7075 24.1077C29.567 24.0308 28.7252 23.4474 28.6974 23.4323C28.7819 24.2767 29.469 25.106 28.2482 26.1648C27.8272 26.533 26.5226 27.5616 26.3821 28.0377C26.7185 28.2067 27.6725 28.6362 27.9813 28.5289C28.1495 28.329 27.9671 27.9917 28.2901 27.8845C28.4725 27.9154 29.3143 28.5598 29.5528 28.698C30.423 29.2043 32.4432 28.959 33.4391 28.9742C33.8742 28.9893 34.9822 28.8972 35.4173 28.8209C36.778 28.5598 37.5219 27.9917 37.0868 26.5488C36.7922 25.5972 35.5855 24.9981 34.7018 24.7068C34.716 23.5092 36.1328 23.233 37.1293 23.3863C38.715 23.6322 38.7711 24.8758 39.1637 25.1211C39.5988 25.0139 39.6968 24.5529 39.6549 24.1537C39.6265 23.7697 39.4022 23.4165 39.2339 23.0792C39.0934 22.8029 38.2799 21.2214 38.2658 21.0372L38.5745 21.0681C38.6164 20.3927 38.336 20.1777 37.9995 19.6253C37.761 19.211 37.4104 18.7348 37.228 18.3048C36.8915 17.4913 37.2699 17.2605 37.1435 16.5088C36.7787 14.1597 35.7544 13.4074 35.5024 11.8876C35.3619 10.9814 34.843 9.7227 34.0714 9.15452C34.3099 8.80137 34.3518 8.80137 34.268 8.34102C34.2261 8.03391 34.1836 7.7268 34.1139 7.43546C33.8471 6.34512 33.4403 5.36262 32.6411 4.56426C32.1782 4.10391 31.6452 4.04211 31.2939 3.70473C31.4763 3.55149 31.4479 3.59753 31.7148 3.58176C31.729 3.28978 31.308 2.8452 31.0831 2.67619C30.3392 2.10801 28.8102 2.06197 27.4495 1.57072C26.355 1.20244 25.9902 1.0183 24.7977 1.18668C23.1424 1.41685 22.7633 2.04621 20.8412 1.40172C20.5047 1.27875 19.9851 1.04857 19.6628 0.987404C18.7089 0.803264 18.0353 1.21758 17.1515 1.50955C16.3516 1.77063 15.5097 1.9699 14.724 2.24674C14.1909 2.44602 13.0687 2.96817 12.816 3.49032C12.9701 3.56726 13.195 3.53636 13.3349 3.76653C12.5491 4.34985 11.8897 4.61093 11.3425 5.50136C10.8377 6.33062 10.3885 7.25132 10.2905 8.18778C10.5851 8.43372 10.8796 8.38769 10.4445 9.10911C9.79931 10.1685 9.46219 11.0432 9.06963 12.2256C8.83113 12.9779 8.60681 13.7612 8.33995 14.4977C7.89067 15.6801 7.61027 15.5874 7.06302 16.2326C6.51576 16.877 6.58602 17.6294 6.23536 18.3975C6.05294 18.7966 5.78608 18.9808 5.63202 19.2879C5.43542 19.6562 5.46378 19.9481 5.18274 20.3473C4.5794 21.2378 5.65974 21.0076 4.94424 22.6346C4.66385 23.2639 4.18685 23.9393 3.82201 24.5226C2.92409 25.9661 0.889763 28.9748 1.0999 30.7254C1.15598 31.1857 1.46474 31.5237 1.45056 31.8C1.45056 32.0919 1.28232 32.7213 1.22624 33.0744C0.987741 34.8402 1.74514 36.114 2.71331 37.4963C3.51325 38.6478 4.28483 39.9986 5.19692 41.0271L5.78608 40.6431C6.61374 41.5335 7.42786 42.7771 8.18525 43.7747C8.38185 44.0358 8.78859 44.6191 9.01291 44.8033L9.27977 44.2042C9.60271 44.312 10.1074 45.1558 10.2196 45.4787C10.4439 46.1389 10.1777 46.5381 10.9912 46.8912C12.31 47.4746 12.0438 48.4571 12.3242 48.826C12.3661 48.8871 12.8295 49.3633 12.8856 49.3784C13.3065 49.1942 13.1802 48.1499 14.1761 49.1482C14.7652 49.7315 15.2281 50.6838 16.126 50.7758C16.757 50.837 16.505 50.6377 16.9955 51.0981C17.4725 51.5584 17.5286 52.0194 18.3563 52.1266C18.7488 52.1878 19.0157 52.0806 19.4508 52.2187C20.3771 52.5409 21.1763 53.7233 21.4007 53.8305C21.4567 53.8614 22.1587 53.8917 22.4533 53.9838C22.9864 54.1837 23.5059 54.5059 24.0106 54.7821C24.4174 55.0123 24.4032 55.1353 24.8525 55.0123C24.9504 53.9686 24.7822 53.4925 25.47 52.633C26.003 51.9576 26.1855 51.5887 26.9429 51.0975L27.3638 51.4657C28.2198 51.2356 28.6968 49.2857 29.4961 49.1015C29.4819 49.5928 28.809 50.1301 28.809 50.8055C29.0758 50.7443 30.5345 49.3469 30.773 49.0397C31.3345 48.3335 31.9378 47.6732 32.3445 46.8597L32.7655 47.2589C33.0181 47.059 33.383 45.6313 33.5093 45.2479C33.8742 44.2193 34.2248 44.5416 34.9964 43.9734C35.6842 43.467 36.8341 41.6861 37.4239 40.918C37.7462 40.5189 37.7327 40.3808 38.2935 40.488C38.7988 40.58 38.9245 40.411 39.1772 40.0427C39.5981 39.4285 39.9069 39.0142 40.2156 38.3231C40.3697 37.985 40.44 37.6168 40.5102 37.2636C40.5521 37.1255 40.9311 36.6034 41.0433 36.4192C41.45 35.7438 41.5345 34.9146 41.548 34.1471L41.5506 34.1496ZM21.9221 25.5524C22.0343 26.0128 23.3815 28.1165 23.9707 28.1777C23.9707 27.9166 23.8862 27.7476 24.1112 27.5332C24.2936 27.3491 24.5605 27.3491 24.7003 27.2412C24.4058 27.134 24.3213 27.1952 24.1814 26.919C24.5321 26.581 25.1354 26.2127 25.5422 25.8904C26.0469 25.5064 26.4117 25.0612 27.1137 25.0612C27.0995 24.9382 27.0015 24.9231 26.6928 24.7232C26.3698 24.539 26.0752 24.3391 25.7807 24.0938C25.6543 24.0018 25.4719 23.8018 25.3597 23.7255C25.051 24.324 24.7287 24.7541 24.097 25.0763C23.5916 25.3525 22.5674 25.5524 21.9221 25.5524ZM16.4225 25.2302C17.4184 25.2302 17.4184 25.3834 18.1203 25.9213C18.4149 26.1673 19.229 26.8578 19.5372 26.9347C19.327 27.1189 18.9899 27.1807 18.9338 27.3339C19.3547 27.6871 19.8034 27.257 19.8034 28.2092C20.1121 28.1172 20.7715 27.3339 20.9681 27.0426C21.3188 26.5204 21.5431 26.091 21.8242 25.584C21.3613 25.3538 20.3229 24.9855 19.7898 24.9086C18.8777 24.7553 18.7656 24.3713 18.373 23.6341C18.1622 23.7873 17.7555 24.2635 17.4609 24.4936C17.3346 24.5857 16.4367 25.2151 16.4225 25.2308V25.2302ZM17.4467 20.9773C17.9656 20.609 18.5554 20.7162 19.2007 20.7932C19.6358 20.8392 20.4215 21.1003 20.4634 21.6224C19.9864 21.6685 19.8885 21.7763 19.3412 21.6842C18.8784 21.6224 18.7798 21.5922 18.5135 21.239C18.0784 21.2851 17.7001 21.3923 17.4474 20.9779L17.4467 20.9773ZM20.856 22.313L21.1647 21.6678L20.856 21.3759C21.8661 20.9767 21.7823 21.683 23.2835 20.9925C23.6761 20.8083 24.0835 20.7925 24.5321 20.7774C24.7706 20.7774 25.7246 20.8386 25.907 20.9004C25.9212 21.2844 24.6584 21.2687 24.4058 21.2687C23.9288 21.2838 23.62 21.8059 23.2552 22.067C22.8342 22.3741 22.5397 22.5892 22.0485 22.7884C21.6276 22.9575 21.7539 22.9575 21.4174 22.7273C21.3194 22.6661 20.8985 22.3741 20.856 22.313ZM29.2744 20.6853C29.3027 20.5624 29.7372 20.056 29.85 19.979C29.9344 20.1783 30.0601 20.4854 29.8919 20.6853C29.7236 20.8695 29.4568 20.8543 29.2744 20.6853ZM13.701 20.3322C13.799 20.3631 14.4023 20.8846 14.4726 20.9773C14.2199 20.9925 13.9395 20.9925 13.7429 20.8392C13.5321 20.6702 13.4483 20.517 13.701 20.3328V20.3322ZM14.5712 19.2728C14.88 19.2419 15.3428 19.4418 15.6097 19.5799C15.9042 19.7337 16.2549 19.887 16.5218 20.0402C15.9603 20.8234 13.7017 20.5163 14.5719 19.2728H14.5712ZM14.8942 21.6987L14.5577 22.236H15.8482L16.115 22.6352C17.3075 22.2669 18.1352 21.6376 19.4405 22.144C19.8897 22.313 20.3803 22.6352 20.6749 23.0035C20.8431 23.2028 21.5586 23.9709 21.7836 23.986C21.868 23.9551 22.7098 22.9877 22.8781 22.8193C23.8462 21.852 25.1928 21.898 26.442 22.19C26.8346 22.2972 27.9014 22.8351 28.0838 22.8654L28.1257 22.1742H29.3743C29.3884 22.0513 29.1777 21.8362 29.1074 21.729C29.5986 21.514 30.3843 21.4219 30.9451 21.3147C31.8991 21.1306 31.689 20.7005 31.6187 19.9179C31.5768 19.5338 31.3242 18.5211 30.9032 18.4132C30.4823 18.2903 29.4162 18.4744 29.1358 18.8433C29.1358 19.2576 29.6269 19.4878 29.1918 19.933C28.3081 20.8695 27.1433 20.3473 27.5501 19.718C27.7609 19.3957 28.2095 19.3188 28.4622 19.1038C28.1676 18.8887 26.161 19.5181 25.3056 19.4109C24.7867 19.3497 24.4779 19.1807 24.2394 18.7046C24.0989 18.4435 23.8469 17.5379 23.7483 17.4301C23.4118 17.7523 23.5375 18.5198 23.0186 18.9038L22.5693 18.1206C22.4153 18.3817 22.2464 19.1492 21.9943 19.1952C21.7836 18.9032 21.6153 17.7826 21.293 17.5833C21.293 17.8904 21.139 19.042 20.9005 19.1952C20.5356 18.8269 20.4937 17.7366 20.2694 17.3834C19.8904 17.5215 20.0309 19.8094 18.1506 19.5786C17.6034 19.5017 15.7798 18.7651 14.8535 18.5343C13.2962 18.1509 12.5524 18.289 12.3139 19.962C12.2159 20.5605 12.426 21.0984 12.9591 21.4206C13.4922 21.7429 14.2921 21.6968 14.8954 21.6968L14.8942 21.6987ZM23.7334 38.3104L24.9259 37.8192C24.7996 37.6962 24.2523 37.374 24.0983 37.3431L23.7334 38.3104ZM26.3853 37.251L26.5258 37.2819C26.638 37.2819 27.2413 37.1438 27.3818 37.1129C27.3258 36.8979 26.6663 36.3915 26.3859 36.3606V37.251H26.3853ZM28.448 36.9439H29.6405L28.8831 35.8693L28.448 36.9439ZM18.1777 35.5622C18.4865 35.8542 19.1736 37.7883 18.781 38.7248C18.5844 39.1851 18.248 39.17 17.7852 39.1239C16.6906 38.9858 16.9994 36.698 17.4203 36.1764C17.5467 36.0383 18.0236 35.624 18.1777 35.5622ZM17.0555 33.2592C17.0974 33.4282 17.3642 33.5512 17.4906 33.6735C17.6169 33.7807 17.7574 34.0267 17.8412 34.1648C19.2445 32.9824 20.8579 32.768 22.5416 32.2149C23.3415 31.9387 24.0712 31.1712 24.9827 31.4935C25.2631 31.5855 25.3056 31.7236 25.3056 31.9847C25.3056 32.9672 25.3056 33.3973 24.0989 33.1053C23.201 32.8903 22.4713 33.7807 21.4613 33.7038C20.6755 33.6426 20.9984 33.3046 20.2829 33.857C19.4972 34.4403 18.7398 34.1793 18.0662 34.9625C17.8135 35.2545 17.6169 35.776 17.1683 35.6997C16.5791 35.6076 16.1163 34.318 15.6251 33.934C15.1481 34.0412 14.6009 34.6094 14.334 34.9934C13.8847 35.6537 13.9692 36.1758 13.8847 36.9281C13.6881 38.7702 13.3375 39.2614 15.2596 39.9986C16.0312 40.2748 16.2697 40.5359 17.1818 40.4438C17.9115 40.3517 18.4304 40.1518 19.1182 39.9677C19.5107 39.8605 22.2187 38.8162 22.5835 38.6321L21.6572 37.8186C21.4329 37.9567 21.4187 38.3558 20.8856 38.5558C19.8195 38.9701 19.3567 38.0494 19.3844 37.2813C19.4121 36.3757 21.9802 36.498 23.0179 36.2988C23.874 36.1449 24.7158 35.9765 25.5712 35.7924C26.1603 35.6694 27.7879 35.5622 27.0441 34.6257C26.89 34.4258 26.4968 33.9504 26.4407 33.7196C26.2867 32.9521 26.4265 33.2743 25.7671 32.86C25.4307 32.6601 25.4023 32.0465 25.4867 31.6934C25.6408 31.1403 26.0624 31.2791 26.4826 31.1561C26.5387 31.1252 27.1562 30.603 27.3386 30.4807C27.7177 30.2505 27.9697 30.2348 28.1386 29.7593C27.5494 29.7593 25.8516 30.2657 25.2205 30.4656C23.7334 30.9568 21.6566 32.0163 20.1276 32.6765C18.9912 33.1678 18.2899 33.2598 17.0548 33.2598L17.0555 33.2592ZM38.9845 30.895C38.8723 30.8799 36.0381 31.5704 35.6171 31.6625C35.028 31.7854 34.4388 31.8618 33.849 32.0005C33.6105 32.0617 33.3018 32.1537 33.1896 32.3845C32.8389 33.0908 34.2699 34.0885 36.6833 32.7377C37.0198 32.5378 39.0406 31.2021 38.9845 30.895Z" fill="black"/>
<path fill-rule="evenodd" clip-rule="evenodd" d="M41.5506 34.1496C41.3018 34.5961 40.6469 35.561 40.0216 35.4241C38.4611 36.7534 36.7278 36.8518 34.7321 36.8518C33.8619 36.8518 33.0343 36.7598 32.1789 36.7289C31.814 36.698 31.2951 36.5907 30.958 36.5907C32.4174 38.3867 33.0343 40.0913 32.0667 42.3476C30.4391 46.1856 25.9914 47.9513 21.9647 47.8592C12.2687 47.6265 11.4591 43.2816 11.26 35.1933C11.2155 33.2472 11.1381 32.2824 11.7827 31.0356C12.2107 30.2083 13.6514 27.9078 14.7395 28.2382C15.4833 28.4684 14.3044 29.8198 14.1078 30.1263C13.5727 30.9209 13.2137 32.4306 14.5003 30.4946C15.2564 29.3059 16.7931 28.4129 17.1522 27.8384C17.0258 27.7312 16.3806 27.332 16.1698 27.1782C15.8191 26.948 15.5665 26.6869 15.2861 26.3949C14.6267 25.7196 14.3882 24.8903 14.8368 24.015C14.3598 24.061 13.3078 24.9206 11.764 23.2015C11.2309 22.6182 11.4275 22.9253 11.4275 22.2039C9.89793 21.5127 8.88786 20.6841 9.00001 18.9032C9.11217 17.4604 9.82767 16.0169 11.0343 15.1574C12.7457 13.9598 15.1455 13.975 17.1657 14.236C17.5724 14.2821 18.0494 14.4202 18.4426 14.4359C18.9196 14.4668 19.2426 14.2669 19.7615 14.313C20.2668 14.3439 20.3932 14.528 20.7574 14.7891C21.585 14.1597 22.2025 13.9598 23.1005 14.6358C23.4369 14.8969 23.7322 14.4057 24.1524 14.2518C24.7139 14.0525 24.9524 14.651 25.3307 14.6049C25.7375 14.5438 26.2989 14.3899 26.734 14.313C28.1792 14.0368 29.7784 13.9138 31.2236 14.359C32.7667 14.8351 34.1275 16.155 34.6747 17.6445C35.0112 18.5658 35.0815 19.4714 34.7025 20.4079C34.3234 21.3292 33.7343 21.5745 32.8783 21.9428L32.9343 22.8181C31.6574 23.3863 32.233 23.6625 31.5594 23.8927C30.6473 24.2149 30.3669 24.5069 29.7075 24.1077C29.567 24.0308 28.7252 23.4474 28.6974 23.4323C28.7819 24.2767 29.469 25.106 28.2482 26.1648C27.8272 26.533 26.5226 27.5616 26.3821 28.0377C26.7185 28.2067 27.6725 28.6362 27.9813 28.5289C28.1495 28.329 27.9671 27.9917 28.2901 27.8845C28.4725 27.9154 29.3143 28.5598 29.5528 28.698C30.423 29.2043 32.4432 28.959 33.4391 28.9742C33.8742 28.9893 34.9822 28.8972 35.4173 28.8209C36.778 28.5598 37.5219 27.9917 37.0868 26.5488C36.7922 25.5972 35.5855 24.9981 34.7018 24.7068C34.716 23.5092 36.1328 23.233 37.1293 23.3863C38.715 23.6322 38.7711 24.8758 39.1637 25.1211C39.5988 25.0139 39.6968 24.5529 39.6549 24.1537C39.6265 23.7697 39.4022 23.4165 39.2339 23.0792C39.0934 22.8029 38.2799 21.2214 38.2658 21.0372L38.5745 21.0681C38.6164 20.3927 38.336 20.1777 37.9995 19.6253C37.761 19.211 37.4104 18.7348 37.228 18.3048C36.8915 17.4913 37.2699 17.2605 37.1435 16.5088C36.7787 14.1597 35.7544 13.4074 35.5024 11.8876C35.3619 10.9814 34.843 9.7227 34.0714 9.15452C34.3099 8.80137 34.3518 8.80137 34.268 8.34102C34.2261 8.03391 34.1836 7.7268 34.1139 7.43546C33.8471 6.34512 33.4403 5.36262 32.6411 4.56426C32.1782 4.10391 31.6452 4.04211 31.2939 3.70473C31.4763 3.55149 31.4479 3.59753 31.7148 3.58176C31.729 3.28978 31.308 2.8452 31.0831 2.67619C30.3392 2.10801 28.8102 2.06197 27.4495 1.57072C26.355 1.20244 25.9902 1.0183 24.7977 1.18668C23.1424 1.41685 22.7633 2.04621 20.8412 1.40172C20.5047 1.27875 19.9851 1.04857 19.6628 0.987404C18.7089 0.803264 18.0353 1.21758 17.1515 1.50955C16.3516 1.77063 15.5097 1.9699 14.724 2.24674C14.1909 2.44602 13.0687 2.96817 12.816 3.49032C12.9701 3.56726 13.195 3.53636 13.3349 3.76653C12.5491 4.34985 11.8897 4.61093 11.3425 5.50136C10.8377 6.33062 10.3885 7.25132 10.2905 8.18778C10.5851 8.43372 10.8796 8.38769 10.4445 9.10911C9.79931 10.1685 9.46219 11.0432 9.06963 12.2256C8.83113 12.9779 8.60681 13.7612 8.33995 14.4977C7.89067 15.6801 7.61027 15.5874 7.06302 16.2326C6.51576 16.877 6.58602 17.6294 6.23536 18.3975C6.05294 18.7966 5.78608 18.9808 5.63202 19.2879C5.43542 19.6562 5.46378 19.9481 5.18274 20.3473C4.5794 21.2378 5.65974 21.0076 4.94424 22.6346C4.66385 23.2639 4.18685 23.9393 3.82201 24.5226C2.92409 25.9661 0.889763 28.9748 1.0999 30.7254C1.15598 31.1857 1.46474 31.5237 1.45056 31.8C1.45056 32.0919 1.28232 32.7213 1.22624 33.0744C0.987741 34.8402 1.74514 36.114 2.71331 37.4963C3.51325 38.6478 4.28483 39.9986 5.19692 41.0271L5.78608 40.6431C6.61374 41.5335 7.42786 42.7771 8.18525 43.7747C8.38185 44.0358 8.78859 44.6191 9.01291 44.8033L9.27977 44.2042C9.60271 44.312 10.1074 45.1558 10.2196 45.4787C10.4439 46.1389 10.1777 46.5381 10.9912 46.8912C12.31 47.4746 12.0438 48.4571 12.3242 48.826C12.3661 48.8871 12.8295 49.3633 12.8856 49.3784C13.3065 49.1942 13.1802 48.1499 14.1761 49.1482C14.7652 49.7315 15.2281 50.6838 16.126 50.7758C16.757 50.837 16.505 50.6377 16.9955 51.0981C17.4725 51.5584 17.5286 52.0194 18.3563 52.1266C18.7488 52.1878 19.0157 52.0806 19.4508 52.2187C20.3771 52.5409 21.1763 53.7233 21.4007 53.8305C21.4567 53.8614 22.1587 53.8917 22.4533 53.9838C22.9864 54.1837 23.5059 54.5059 24.0106 54.7821C24.4174 55.0123 24.4032 55.1353 24.8525 55.0123C24.9504 53.9686 24.7822 53.4925 25.47 52.633C26.003 51.9576 26.1855 51.5887 26.9429 51.0975L27.3638 51.4657C28.2198 51.2356 28.6968 49.2857 29.4961 49.1015C29.4819 49.5928 28.809 50.1301 28.809 50.8055C29.0758 50.7443 30.5345 49.3469 30.773 49.0397C31.3345 48.3335 31.9378 47.6732 32.3445 46.8597L32.7655 47.2589C33.0181 47.059 33.383 45.6313 33.5093 45.2479C33.8742 44.2193 34.2248 44.5416 34.9964 43.9734C35.6842 43.467 36.8341 41.6861 37.4239 40.918C37.7462 40.5189 37.7327 40.3808 38.2935 40.488C38.7988 40.58 38.9245 40.411 39.1772 40.0427C39.5981 39.4285 39.9069 39.0142 40.2156 38.3231C40.3697 37.985 40.44 37.6168 40.5102 37.2636C40.5521 37.1255 40.9311 36.6034 41.0433 36.4192C41.45 35.7438 41.5345 34.9146 41.548 34.1471L41.5506 34.1496ZM21.9221 25.5524C22.0343 26.0128 23.3815 28.1165 23.9707 28.1777C23.9707 27.9166 23.8862 27.7476 24.1112 27.5332C24.2936 27.3491 24.5605 27.3491 24.7003 27.2412C24.4058 27.134 24.3213 27.1952 24.1814 26.919C24.5321 26.581 25.1354 26.2127 25.5422 25.8904C26.0469 25.5064 26.4117 25.0612 27.1137 25.0612C27.0995 24.9382 27.0015 24.9231 26.6928 24.7232C26.3698 24.539 26.0752 24.3391 25.7807 24.0938C25.6543 24.0018 25.4719 23.8018 25.3597 23.7255C25.051 24.324 24.7287 24.7541 24.097 25.0763C23.5916 25.3525 22.5674 25.5524 21.9221 25.5524ZM16.4225 25.2302C17.4184 25.2302 17.4184 25.3834 18.1203 25.9213C18.4149 26.1673 19.229 26.8578 19.5372 26.9347C19.327 27.1189 18.9899 27.1807 18.9338 27.3339C19.3547 27.6871 19.8034 27.257 19.8034 28.2092C20.1121 28.1172 20.7715 27.3339 20.9681 27.0426C21.3188 26.5204 21.5431 26.091 21.8242 25.584C21.3613 25.3538 20.3229 24.9855 19.7898 24.9086C18.8777 24.7553 18.7656 24.3713 18.373 23.6341C18.1622 23.7873 17.7555 24.2635 17.4609 24.4936C17.3346 24.5857 16.4367 25.2151 16.4225 25.2308V25.2302ZM17.4467 20.9773C17.9656 20.609 18.5554 20.7162 19.2007 20.7932C19.6358 20.8392 20.4215 21.1003 20.4634 21.6224C19.9864 21.6685 19.8885 21.7763 19.3412 21.6842C18.8784 21.6224 18.7798 21.5922 18.5135 21.239C18.0784 21.2851 17.7001 21.3923 17.4474 20.9779L17.4467 20.9773ZM20.856 22.313L21.1647 21.6678L20.856 21.3759C21.8661 20.9767 21.7823 21.683 23.2835 20.9925C23.6761 20.8083 24.0835 20.7925 24.5321 20.7774C24.7706 20.7774 25.7246 20.8386 25.907 20.9004C25.9212 21.2844 24.6584 21.2687 24.4058 21.2687C23.9288 21.2838 23.62 21.8059 23.2552 22.067C22.8342 22.3741 22.5397 22.5892 22.0485 22.7884C21.6276 22.9575 21.7539 22.9575 21.4174 22.7273C21.3194 22.6661 20.8985 22.3741 20.856 22.313ZM29.2744 20.6853C29.3027 20.5624 29.7372 20.056 29.85 19.979C29.9344 20.1783 30.0601 20.4854 29.8919 20.6853C29.7236 20.8695 29.4568 20.8543 29.2744 20.6853ZM13.701 20.3322C13.799 20.3631 14.4023 20.8846 14.4726 20.9773C14.2199 20.9925 13.9395 20.9925 13.7429 20.8392C13.5321 20.6702 13.4483 20.517 13.701 20.3328V20.3322ZM14.5712 19.2728C14.88 19.2419 15.3428 19.4418 15.6097 19.5799C15.9042 19.7337 16.2549 19.887 16.5218 20.0402C15.9603 20.8234 13.7017 20.5163 14.5719 19.2728H14.5712ZM14.8942 21.6987L14.5577 22.236H15.8482L16.115 22.6352C17.3075 22.2669 18.1352 21.6376 19.4405 22.144C19.8897 22.313 20.3803 22.6352 20.6749 23.0035C20.8431 23.2028 21.5586 23.9709 21.7836 23.986C21.868 23.9551 22.7098 22.9877 22.8781 22.8193C23.8462 21.852 25.1928 21.898 26.442 22.19C26.8346 22.2972 27.9014 22.8351 28.0838 22.8654L28.1257 22.1742H29.3743C29.3884 22.0513 29.1777 21.8362 29.1074 21.729C29.5986 21.514 30.3843 21.4219 30.9451 21.3147C31.8991 21.1306 31.689 20.7005 31.6187 19.9179C31.5768 19.5338 31.3242 18.5211 30.9032 18.4132C30.4823 18.2903 29.4162 18.4744 29.1358 18.8433C29.1358 19.2576 29.6269 19.4878 29.1918 19.933C28.3081 20.8695 27.1433 20.3473 27.5501 19.718C27.7609 19.3957 28.2095 19.3188 28.4622 19.1038C28.1676 18.8887 26.161 19.5181 25.3056 19.4109C24.7867 19.3497 24.4779 19.1807 24.2394 18.7046C24.0989 18.4435 23.8469 17.5379 23.7483 17.4301C23.4118 17.7523 23.5375 18.5198 23.0186 18.9038L22.5693 18.1206C22.4153 18.3817 22.2464 19.1492 21.9943 19.1952C21.7836 18.9032 21.6153 17.7826 21.293 17.5833C21.293 17.8904 21.139 19.042 20.9005 19.1952C20.5356 18.8269 20.4937 17.7366 20.2694 17.3834C19.8904 17.5215 20.0309 19.8094 18.1506 19.5786C17.6034 19.5017 15.7798 18.7651 14.8535 18.5343C13.2962 18.1509 12.5524 18.289 12.3139 19.962C12.2159 20.5605 12.426 21.0984 12.9591 21.4206C13.4922 21.7429 14.2921 21.6968 14.8954 21.6968L14.8942 21.6987ZM23.7334 38.3104L24.9259 37.8192C24.7996 37.6962 24.2523 37.374 24.0983 37.3431L23.7334 38.3104ZM26.3853 37.251L26.5258 37.2819C26.638 37.2819 27.2413 37.1438 27.3818 37.1129C27.3258 36.8979 26.6663 36.3915 26.3859 36.3606V37.251H26.3853ZM28.448 36.9439H29.6405L28.8831 35.8693L28.448 36.9439ZM18.1777 35.5622C18.4865 35.8542 19.1736 37.7883 18.781 38.7248C18.5844 39.1851 18.248 39.17 17.7852 39.1239C16.6906 38.9858 16.9994 36.698 17.4203 36.1764C17.5467 36.0383 18.0236 35.624 18.1777 35.5622ZM17.0555 33.2592C17.0974 33.4282 17.3642 33.5512 17.4906 33.6735C17.6169 33.7807 17.7574 34.0267 17.8412 34.1648C19.2445 32.9824 20.8579 32.768 22.5416 32.2149C23.3415 31.9387 24.0712 31.1712 24.9827 31.4935C25.2631 31.5855 25.3056 31.7236 25.3056 31.9847C25.3056 32.9672 25.3056 33.3973 24.0989 33.1053C23.201 32.8903 22.4713 33.7807 21.4613 33.7038C20.6755 33.6426 20.9984 33.3046 20.2829 33.857C19.4972 34.4403 18.7398 34.1793 18.0662 34.9625C17.8135 35.2545 17.6169 35.776 17.1683 35.6997C16.5791 35.6076 16.1163 34.318 15.6251 33.934C15.1481 34.0412 14.6009 34.6094 14.334 34.9934C13.8847 35.6537 13.9692 36.1758 13.8847 36.9281C13.6881 38.7702 13.3375 39.2614 15.2596 39.9986C16.0312 40.2748 16.2697 40.5359 17.1818 40.4438C17.9115 40.3517 18.4304 40.1518 19.1182 39.9677C19.5107 39.8605 22.2187 38.8162 22.5835 38.6321L21.6572 37.8186C21.4329 37.9567 21.4187 38.3558 20.8856 38.5558C19.8195 38.9701 19.3567 38.0494 19.3844 37.2813C19.4121 36.3757 21.9802 36.498 23.0179 36.2988C23.874 36.1449 24.7158 35.9765 25.5712 35.7924C26.1603 35.6694 27.7879 35.5622 27.0441 34.6257C26.89 34.4258 26.4968 33.9504 26.4407 33.7196C26.2867 32.9521 26.4265 33.2743 25.7671 32.86C25.4307 32.6601 25.4023 32.0465 25.4867 31.6934C25.6408 31.1403 26.0624 31.2791 26.4826 31.1561C26.5387 31.1252 27.1562 30.603 27.3386 30.4807C27.7177 30.2505 27.9697 30.2348 28.1386 29.7593C27.5494 29.7593 25.8516 30.2657 25.2205 30.4656C23.7334 30.9568 21.6566 32.0163 20.1276 32.6765C18.9912 33.1678 18.2899 33.2598 17.0548 33.2598L17.0555 33.2592ZM38.9845 30.895C38.8723 30.8799 36.0381 31.5704 35.6171 31.6625C35.028 31.7854 34.4388 31.8618 33.849 32.0005C33.6105 32.0617 33.3018 32.1537 33.1896 32.3845C32.8389 33.0908 34.2699 34.0885 36.6833 32.7377C37.0198 32.5378 39.0406 31.2021 38.9845 30.895Z" fill="black" fill-opacity="0.2"/>
<path fill-rule="evenodd" clip-rule="evenodd" d="M40.0215 35.4232C40.6248 35.5461 41.2984 34.6557 41.5505 34.1487C41.6065 32.5829 41.7748 30.6021 42.2943 29.1283C42.547 28.422 42.8274 27.7927 43.5152 27.4244C44.0901 27.1022 42.7436 26.7642 42.0423 27.8696C41.7058 28.4069 41.4248 29.2362 41.116 29.8504C40.7795 30.4797 40.4147 31.094 39.9938 31.6773C39.0817 32.9518 38.2121 33.7962 36.5987 34.1493C32.2915 35.0706 29.3032 31.3241 34.9434 30.5567C36.6271 30.3265 38.2263 30.5567 39.5735 29.2671C40.0789 28.7758 40.4856 28.0544 40.5559 27.3481C40.6119 26.6879 40.289 25.5521 39.4613 25.5824C39.1809 26.1657 39.5593 27.6086 38.381 28.6377C37.4973 29.39 36.5291 29.6972 35.3785 29.8353C34.0738 29.9885 32.6564 29.6051 31.324 29.8201C30.4822 29.9582 29.0654 30.7717 28.9667 31.6628C29.514 31.4017 31.3382 30.4961 31.8848 30.8644C31.8706 31.2636 29.233 32.6762 29.233 34.5182C30.1309 33.904 31.3794 34.3183 32.2915 34.6412C35.5184 35.7158 38.3107 35.9459 40.8221 33.1983C40.8221 33.5975 40.6957 34.0736 40.5836 34.457C40.4714 34.8562 40.2748 35.1173 40.0221 35.4244L40.0215 35.4232Z" fill="#D3D3D3"/>
<path fill-rule="evenodd" clip-rule="evenodd" d="M45.1988 28.1776C49.127 27.8244 50.5025 26.5348 50.5025 24.7849C50.5025 20.6241 45.1711 18.0909 45.7886 13.3316C44.961 14.4982 44.3995 16.8013 45.2833 18.736C45.7184 19.6725 46.5041 20.5017 47.4298 21.6684C48.2439 22.6818 49.506 24.4778 48.7344 25.7674C48.0892 26.8728 46.2514 27.6252 45.1988 28.1776Z" fill="#D3D3D3"/>
<path fill-rule="evenodd" clip-rule="evenodd" d="M41.0878 15.4808H41.158C41.158 15.2816 41.2425 14.9436 41.3688 14.7134C41.958 13.7618 42.7295 16.4942 42.968 17.0006C43.3748 17.9062 43.7538 18.6894 44.245 19.549C45.2131 21.2377 46.5178 22.5734 46.7421 24.7074C46.9948 24.3694 46.9948 23.9399 46.8826 23.4947C46.6583 22.6352 45.9705 21.683 45.6618 21.1766C44.8483 19.7798 43.9504 18.091 43.4309 16.7856C42.8275 15.3118 42.2944 13.7612 42.2803 12.1644C42.2661 10.4605 42.8978 9.21693 43.5991 7.72742C43.2762 7.88066 42.589 8.74082 42.3924 9.06306C42.0559 9.61611 41.733 10.1837 41.5506 10.7979C40.9053 12.8707 41.0878 13.454 41.0878 15.4802V15.4808Z" fill="#D3D3D3"/>
<path fill-rule="evenodd" clip-rule="evenodd" d="M44.7638 24.5382C45.0165 24.3849 45.2131 23.8167 45.2266 23.5405C45.255 22.8803 44.3145 22.2969 43.9362 21.1763C43.8943 21.0691 43.7957 20.6542 43.7538 20.593C43.5153 20.762 43.6274 21.3762 43.726 21.6373C43.8524 21.8984 44.1051 22.2358 44.2733 22.4666C44.778 23.1268 44.9746 23.6793 44.7645 24.5394L44.7638 24.5382Z" fill="#D3D3D3"/>
<path d="M166.879 6.47534V21.4274C166.879 21.8285 167.01 22.1494 167.27 22.3901C167.531 22.6107 167.882 22.721 168.323 22.721H175.423L175.694 26.963C174.19 27.1435 172.605 27.2437 170.941 27.2638C169.276 27.3039 167.631 27.324 166.007 27.324C164.503 27.324 163.329 26.9028 162.487 26.0604C161.665 25.218 161.253 24.125 161.253 22.7812V6.47534H166.879Z" fill="black"/>
<path d="M166.879 6.47534V21.4274C166.879 21.8285 167.01 22.1494 167.27 22.3901C167.531 22.6107 167.882 22.721 168.323 22.721H175.423L175.694 26.963C174.19 27.1435 172.605 27.2437 170.941 27.2638C169.276 27.3039 167.631 27.324 166.007 27.324C164.503 27.324 163.329 26.9028 162.487 26.0604C161.665 25.218 161.253 24.125 161.253 22.7812V6.47534H166.879Z" fill="black" fill-opacity="0.2"/>
<path d="M152.049 6.47534C152.51 6.47534 152.911 6.60571 153.252 6.86644C153.613 7.12718 153.854 7.48819 153.974 7.94949L159.66 27.2337H153.884L150.244 12.9134C150.163 12.5725 150.093 12.2115 150.033 11.8304C149.973 11.4293 149.913 11.0582 149.853 10.7173H149.04C149 11.0582 148.94 11.4293 148.86 11.8304C148.8 12.2115 148.729 12.5725 148.649 12.9134L145.009 27.2337H139.233L144.919 7.94949C145.039 7.48819 145.27 7.12718 145.611 6.86644C145.972 6.60571 146.383 6.47534 146.844 6.47534H152.049ZM154.907 18.2384V22.2998H143.986V18.2384H154.907Z" fill="black"/>
<path d="M152.049 6.47534C152.51 6.47534 152.911 6.60571 153.252 6.86644C153.613 7.12718 153.854 7.48819 153.974 7.94949L159.66 27.2337H153.884L150.244 12.9134C150.163 12.5725 150.093 12.2115 150.033 11.8304C149.973 11.4293 149.913 11.0582 149.853 10.7173H149.04C149 11.0582 148.94 11.4293 148.86 11.8304C148.8 12.2115 148.729 12.5725 148.649 12.9134L145.009 27.2337H139.233L144.919 7.94949C145.039 7.48819 145.27 7.12718 145.611 6.86644C145.972 6.60571 146.383 6.47534 146.844 6.47534H152.049ZM154.907 18.2384V22.2998H143.986V18.2384H154.907Z" fill="black" fill-opacity="0.2"/>
<path d="M129.079 6.1745C130.783 6.1745 132.227 6.34498 133.411 6.68594C134.614 7.0269 135.577 7.59851 136.299 8.40076C137.041 9.20302 137.573 10.2961 137.893 11.68C138.234 13.0438 138.405 14.7687 138.405 16.8545C138.405 18.9404 138.234 20.6753 137.893 22.0592C137.573 23.423 137.041 24.506 136.299 25.3083C135.577 26.1106 134.614 26.6822 133.411 27.0231C132.227 27.3641 130.783 27.5346 129.079 27.5346C127.414 27.5346 125.88 27.5045 124.476 27.4443C123.092 27.3841 121.778 27.3139 120.535 27.2337L122.851 23.1723C123.573 23.2325 124.466 23.2826 125.529 23.3227C126.592 23.3428 127.775 23.3528 129.079 23.3528C129.941 23.3528 130.613 23.1723 131.094 22.8113C131.596 22.4503 131.947 21.7984 132.147 20.8558C132.348 19.9131 132.448 18.5794 132.448 16.8545C132.448 15.1297 132.348 13.7959 132.147 12.8533C131.947 11.9106 131.596 11.2588 131.094 10.8978C130.613 10.5368 129.941 10.3563 129.079 10.3563C127.855 10.3563 126.762 10.3563 125.799 10.3563C124.857 10.3563 123.944 10.3563 123.062 10.3563L120.535 6.47535C121.798 6.39512 123.112 6.32492 124.476 6.26475C125.86 6.20458 127.394 6.1745 129.079 6.1745ZM126.191 6.47535V27.2337H120.535V6.47535H126.191Z" fill="black"/>
<path d="M129.079 6.1745C130.783 6.1745 132.227 6.34498 133.411 6.68594C134.614 7.0269 135.577 7.59851 136.299 8.40076C137.041 9.20302 137.573 10.2961 137.893 11.68C138.234 13.0438 138.405 14.7687 138.405 16.8545C138.405 18.9404 138.234 20.6753 137.893 22.0592C137.573 23.423 137.041 24.506 136.299 25.3083C135.577 26.1106 134.614 26.6822 133.411 27.0231C132.227 27.3641 130.783 27.5346 129.079 27.5346C127.414 27.5346 125.88 27.5045 124.476 27.4443C123.092 27.3841 121.778 27.3139 120.535 27.2337L122.851 23.1723C123.573 23.2325 124.466 23.2826 125.529 23.3227C126.592 23.3428 127.775 23.3528 129.079 23.3528C129.941 23.3528 130.613 23.1723 131.094 22.8113C131.596 22.4503 131.947 21.7984 132.147 20.8558C132.348 19.9131 132.448 18.5794 132.448 16.8545C132.448 15.1297 132.348 13.7959 132.147 12.8533C131.947 11.9106 131.596 11.2588 131.094 10.8978C130.613 10.5368 129.941 10.3563 129.079 10.3563C127.855 10.3563 126.762 10.3563 125.799 10.3563C124.857 10.3563 123.944 10.3563 123.062 10.3563L120.535 6.47535C121.798 6.39512 123.112 6.32492 124.476 6.26475C125.86 6.20458 127.394 6.1745 129.079 6.1745ZM126.191 6.47535V27.2337H120.535V6.47535H126.191Z" fill="black" fill-opacity="0.2"/>
<path d="M116.911 6.47534V25.2481C116.911 26.5719 116.259 27.2337 114.955 27.2337H112.428C111.826 27.2337 111.375 27.0933 111.074 26.8125C110.793 26.5317 110.503 26.1206 110.202 25.5791L105.117 16.7342C104.877 16.2328 104.636 15.6913 104.395 15.1096C104.155 14.528 103.954 13.9464 103.794 13.3647H103.523C103.603 13.9464 103.663 14.548 103.703 15.1698C103.764 15.7715 103.794 16.3531 103.794 16.9147V27.2337H98.5289V8.46093C98.5289 7.1372 99.1907 6.47534 100.514 6.47534H103.011C103.613 6.47534 104.054 6.61574 104.335 6.89653C104.616 7.17732 104.917 7.58847 105.238 8.12999L110.111 16.6439C110.392 17.1253 110.663 17.6568 110.924 18.2384C111.184 18.8201 111.435 19.4318 111.676 20.0736H111.947C111.886 19.4518 111.836 18.8401 111.796 18.2384C111.756 17.6367 111.736 17.035 111.736 16.4333L111.706 6.47534H116.911Z" fill="black"/>
<path d="M116.911 6.47534V25.2481C116.911 26.5719 116.259 27.2337 114.955 27.2337H112.428C111.826 27.2337 111.375 27.0933 111.074 26.8125C110.793 26.5317 110.503 26.1206 110.202 25.5791L105.117 16.7342C104.877 16.2328 104.636 15.6913 104.395 15.1096C104.155 14.528 103.954 13.9464 103.794 13.3647H103.523C103.603 13.9464 103.663 14.548 103.703 15.1698C103.764 15.7715 103.794 16.3531 103.794 16.9147V27.2337H98.5289V8.46093C98.5289 7.1372 99.1907 6.47534 100.514 6.47534H103.011C103.613 6.47534 104.054 6.61574 104.335 6.89653C104.616 7.17732 104.917 7.58847 105.238 8.12999L110.111 16.6439C110.392 17.1253 110.663 17.6568 110.924 18.2384C111.184 18.8201 111.435 19.4318 111.676 20.0736H111.947C111.886 19.4518 111.836 18.8401 111.796 18.2384C111.756 17.6367 111.736 17.035 111.736 16.4333L111.706 6.47534H116.911Z" fill="black" fill-opacity="0.2"/>
<path d="M89.2652 6.47534C89.7265 6.47534 90.1276 6.60571 90.4686 6.86644C90.8296 7.12718 91.0703 7.48819 91.1906 7.94949L96.8766 27.2337H91.1004L87.4601 12.9134C87.3799 12.5725 87.3097 12.2115 87.2495 11.8304C87.1894 11.4293 87.1292 11.0582 87.069 10.7173H86.2567C86.2166 11.0582 86.1565 11.4293 86.0762 11.8304C86.0161 12.2115 85.9459 12.5725 85.8656 12.9134L82.2254 27.2337H76.4492L82.1351 7.94949C82.2555 7.48819 82.4861 7.12718 82.8271 6.86644C83.1881 6.60571 83.5993 6.47534 84.0606 6.47534H89.2652ZM92.1232 18.2384V22.2998H81.2025V18.2384H92.1232Z" fill="black"/>
<path d="M89.2652 6.47534C89.7265 6.47534 90.1276 6.60571 90.4686 6.86644C90.8296 7.12718 91.0703 7.48819 91.1906 7.94949L96.8766 27.2337H91.1004L87.4601 12.9134C87.3799 12.5725 87.3097 12.2115 87.2495 11.8304C87.1894 11.4293 87.1292 11.0582 87.069 10.7173H86.2567C86.2166 11.0582 86.1565 11.4293 86.0762 11.8304C86.0161 12.2115 85.9459 12.5725 85.8656 12.9134L82.2254 27.2337H76.4492L82.1351 7.94949C82.2555 7.48819 82.4861 7.12718 82.8271 6.86644C83.1881 6.60571 83.5993 6.47534 84.0606 6.47534H89.2652ZM92.1232 18.2384V22.2998H81.2025V18.2384H92.1232Z" fill="black" fill-opacity="0.2"/>
<path d="M77.648 6.47534L72.323 25.6994C72.2027 26.1607 71.962 26.5317 71.601 26.8125C71.26 27.0933 70.8489 27.2337 70.3675 27.2337H65.3434C64.842 27.2337 64.4108 27.0933 64.0498 26.8125C63.7088 26.5317 63.4882 26.1607 63.3879 25.6994L58.0328 6.47534H63.8392L67.0281 20.6452C67.1084 21.0263 67.1886 21.4174 67.2688 21.8185C67.349 22.2196 67.4192 22.6107 67.4794 22.9918H68.2014C68.2616 22.6107 68.3318 22.2196 68.412 21.8185C68.4922 21.4174 68.5725 21.0263 68.6527 20.6452L71.8417 6.47534H77.648Z" fill="black"/>
<path d="M77.648 6.47534L72.323 25.6994C72.2027 26.1607 71.962 26.5317 71.601 26.8125C71.26 27.0933 70.8489 27.2337 70.3675 27.2337H65.3434C64.842 27.2337 64.4108 27.0933 64.0498 26.8125C63.7088 26.5317 63.4882 26.1607 63.3879 25.6994L58.0328 6.47534H63.8392L67.0281 20.6452C67.1084 21.0263 67.1886 21.4174 67.2688 21.8185C67.349 22.2196 67.4192 22.6107 67.4794 22.9918H68.2014C68.2616 22.6107 68.3318 22.2196 68.412 21.8185C68.4922 21.4174 68.5725 21.0263 68.6527 20.6452L71.8417 6.47534H77.648Z" fill="black" fill-opacity="0.2"/>
<path d="M169.913 34.1819C171.432 34.1819 172.622 34.3353 173.484 34.642C174.346 34.9342 174.959 35.4454 175.325 36.1757C175.69 36.906 175.872 37.9285 175.872 39.243C175.872 40.5576 175.697 41.58 175.346 42.3103C175.011 43.0261 174.448 43.53 173.659 43.8221C172.871 44.1142 171.812 44.2603 170.483 44.2603C169.781 44.2603 169.08 44.2311 168.379 44.1726C167.693 44.0996 167.05 44.012 166.451 43.9097C165.852 43.7929 165.341 43.676 164.918 43.5592C164.494 43.4277 164.202 43.3182 164.041 43.2305L164.107 41.3025C165.012 41.3025 165.955 41.3025 166.933 41.3025C167.912 41.3025 168.876 41.3025 169.825 41.3025C170.336 41.2879 170.731 41.2295 171.008 41.1272C171.286 41.0104 171.476 40.8059 171.578 40.5138C171.695 40.207 171.753 39.7835 171.753 39.243C171.753 38.688 171.695 38.2571 171.578 37.9504C171.476 37.6436 171.286 37.4391 171.008 37.3369C170.731 37.2201 170.336 37.1616 169.825 37.1616C168.408 37.1616 167.196 37.1689 166.188 37.1835C165.18 37.1981 164.494 37.2274 164.129 37.2712L163.8 34.401C164.443 34.328 165.049 34.2769 165.619 34.2477C166.188 34.2185 166.809 34.2039 167.481 34.2039C168.153 34.1892 168.964 34.1819 169.913 34.1819ZM167.919 34.401V49.5186H163.8V34.401H167.919Z" fill="black"/>
<path d="M169.913 34.1819C171.432 34.1819 172.622 34.3353 173.484 34.642C174.346 34.9342 174.959 35.4454 175.325 36.1757C175.69 36.906 175.872 37.9285 175.872 39.243C175.872 40.5576 175.697 41.58 175.346 42.3103C175.011 43.0261 174.448 43.53 173.659 43.8221C172.871 44.1142 171.812 44.2603 170.483 44.2603C169.781 44.2603 169.08 44.2311 168.379 44.1726C167.693 44.0996 167.05 44.012 166.451 43.9097C165.852 43.7929 165.341 43.676 164.918 43.5592C164.494 43.4277 164.202 43.3182 164.041 43.2305L164.107 41.3025C165.012 41.3025 165.955 41.3025 166.933 41.3025C167.912 41.3025 168.876 41.3025 169.825 41.3025C170.336 41.2879 170.731 41.2295 171.008 41.1272C171.286 41.0104 171.476 40.8059 171.578 40.5138C171.695 40.207 171.753 39.7835 171.753 39.243C171.753 38.688 171.695 38.2571 171.578 37.9504C171.476 37.6436 171.286 37.4391 171.008 37.3369C170.731 37.2201 170.336 37.1616 169.825 37.1616C168.408 37.1616 167.196 37.1689 166.188 37.1835C165.18 37.1981 164.494 37.2274 164.129 37.2712L163.8 34.401C164.443 34.328 165.049 34.2769 165.619 34.2477C166.188 34.2185 166.809 34.2039 167.481 34.2039C168.153 34.1892 168.964 34.1819 169.913 34.1819ZM167.919 34.401V49.5186H163.8V34.401H167.919Z" fill="black" fill-opacity="0.2"/>
<path d="M154.834 34.0946C156.09 34.0946 157.149 34.2188 158.011 34.4671C158.873 34.7154 159.574 35.139 160.114 35.7378C160.655 36.3221 161.042 37.1181 161.276 38.1259C161.509 39.1338 161.626 40.4118 161.626 41.9601C161.626 43.4938 161.509 44.7718 161.276 45.7942C161.042 46.8021 160.655 47.6054 160.114 48.2043C159.574 48.7885 158.873 49.2048 158.011 49.4531C157.149 49.7014 156.09 49.8256 154.834 49.8256C153.593 49.8256 152.534 49.7014 151.657 49.4531C150.796 49.2048 150.094 48.7885 149.554 48.2043C149.014 47.6054 148.626 46.8021 148.393 45.7942C148.159 44.7718 148.042 43.4938 148.042 41.9601C148.042 40.4118 148.159 39.1338 148.393 38.1259C148.626 37.1181 149.014 36.3221 149.554 35.7378C150.094 35.139 150.796 34.7154 151.657 34.4671C152.534 34.2188 153.593 34.0946 154.834 34.0946ZM154.834 37.2277C154.191 37.2277 153.688 37.3591 153.322 37.622C152.972 37.8849 152.724 38.3596 152.577 39.0461C152.431 39.7326 152.358 40.704 152.358 41.9601C152.358 43.2162 152.431 44.1876 152.577 44.874C152.724 45.5605 152.972 46.0352 153.322 46.2982C153.688 46.5611 154.191 46.6925 154.834 46.6925C155.477 46.6925 155.973 46.5611 156.324 46.2982C156.689 46.0352 156.937 45.5605 157.069 44.874C157.215 44.1876 157.288 43.2162 157.288 41.9601C157.288 40.704 157.215 39.7326 157.069 39.0461C156.937 38.3596 156.689 37.8849 156.324 37.622C155.973 37.3591 155.477 37.2277 154.834 37.2277Z" fill="black"/>
<path d="M154.834 34.0946C156.09 34.0946 157.149 34.2188 158.011 34.4671C158.873 34.7154 159.574 35.139 160.114 35.7378C160.655 36.3221 161.042 37.1181 161.276 38.1259C161.509 39.1338 161.626 40.4118 161.626 41.9601C161.626 43.4938 161.509 44.7718 161.276 45.7942C161.042 46.8021 160.655 47.6054 160.114 48.2043C159.574 48.7885 158.873 49.2048 158.011 49.4531C157.149 49.7014 156.09 49.8256 154.834 49.8256C153.593 49.8256 152.534 49.7014 151.657 49.4531C150.796 49.2048 150.094 48.7885 149.554 48.2043C149.014 47.6054 148.626 46.8021 148.393 45.7942C148.159 44.7718 148.042 43.4938 148.042 41.9601C148.042 40.4118 148.159 39.1338 148.393 38.1259C148.626 37.1181 149.014 36.3221 149.554 35.7378C150.094 35.139 150.796 34.7154 151.657 34.4671C152.534 34.2188 153.593 34.0946 154.834 34.0946ZM154.834 37.2277C154.191 37.2277 153.688 37.3591 153.322 37.622C152.972 37.8849 152.724 38.3596 152.577 39.0461C152.431 39.7326 152.358 40.704 152.358 41.9601C152.358 43.2162 152.431 44.1876 152.577 44.874C152.724 45.5605 152.972 46.0352 153.322 46.2982C153.688 46.5611 154.191 46.6925 154.834 46.6925C155.477 46.6925 155.973 46.5611 156.324 46.2982C156.689 46.0352 156.937 45.5605 157.069 44.874C157.215 44.1876 157.288 43.2162 157.288 41.9601C157.288 40.704 157.215 39.7326 157.069 39.0461C156.937 38.3596 156.689 37.8849 156.324 37.622C155.973 37.3591 155.477 37.2277 154.834 37.2277Z" fill="black" fill-opacity="0.2"/>
<path d="M137.194 34.4013V49.5188H133.097V34.4013H137.194ZM141.97 40.0101V42.9679H137.019V40.0101H141.97ZM145.848 34.4013V49.5188H141.729V34.4013H145.848Z" fill="black"/>
<path d="M137.194 34.4013V49.5188H133.097V34.4013H137.194ZM141.97 40.0101V42.9679H137.019V40.0101H141.97ZM145.848 34.4013V49.5188H141.729V34.4013H145.848Z" fill="black" fill-opacity="0.2"/>
<path d="M125.349 34.0946C126.124 34.1092 126.978 34.1603 127.913 34.248C128.848 34.3356 129.753 34.5182 130.63 34.7957L130.367 37.4687C129.724 37.4541 128.935 37.4394 128 37.4248C127.08 37.4102 126.175 37.4029 125.284 37.4029C124.948 37.4029 124.663 37.4175 124.429 37.4467C124.21 37.4614 124.028 37.5052 123.881 37.5782C123.75 37.6366 123.655 37.7316 123.597 37.863C123.538 37.9799 123.509 38.1478 123.509 38.3669C123.509 38.7175 123.611 38.9877 123.816 39.1776C124.035 39.3529 124.415 39.5354 124.955 39.7253L127.781 40.777C129.008 41.259 129.863 41.8578 130.345 42.5736C130.841 43.2747 131.09 44.1876 131.09 45.3122C131.09 46.1594 130.987 46.8751 130.783 47.4594C130.578 48.0436 130.242 48.5037 129.775 48.8397C129.322 49.1756 128.716 49.4239 127.957 49.5846C127.212 49.7452 126.284 49.8256 125.174 49.8256C124.663 49.8256 123.911 49.7891 122.917 49.716C121.939 49.643 120.829 49.4531 119.587 49.1464L119.828 46.2543C120.705 46.2689 121.479 46.2909 122.151 46.3201C122.837 46.3347 123.429 46.3493 123.925 46.3639C124.436 46.3639 124.838 46.3639 125.13 46.3639C125.627 46.3639 126.007 46.342 126.27 46.2982C126.532 46.2397 126.715 46.1448 126.817 46.0133C126.92 45.8673 126.971 45.6628 126.971 45.3999C126.971 45.1516 126.934 44.9544 126.861 44.8083C126.788 44.6623 126.657 44.5381 126.467 44.4359C126.291 44.3336 126.05 44.2314 125.744 44.1291L122.72 42.9241C121.523 42.4275 120.675 41.8359 120.179 41.1494C119.682 40.4629 119.434 39.5647 119.434 38.4546C119.434 37.5782 119.543 36.8625 119.762 36.3075C119.982 35.7524 120.318 35.3142 120.77 34.9929C121.238 34.6716 121.851 34.4452 122.611 34.3137C123.37 34.1676 124.283 34.0946 125.349 34.0946Z" fill="black"/>
<path d="M125.349 34.0946C126.124 34.1092 126.978 34.1603 127.913 34.248C128.848 34.3356 129.753 34.5182 130.63 34.7957L130.367 37.4687C129.724 37.4541 128.935 37.4394 128 37.4248C127.08 37.4102 126.175 37.4029 125.284 37.4029C124.948 37.4029 124.663 37.4175 124.429 37.4467C124.21 37.4614 124.028 37.5052 123.881 37.5782C123.75 37.6366 123.655 37.7316 123.597 37.863C123.538 37.9799 123.509 38.1478 123.509 38.3669C123.509 38.7175 123.611 38.9877 123.816 39.1776C124.035 39.3529 124.415 39.5354 124.955 39.7253L127.781 40.777C129.008 41.259 129.863 41.8578 130.345 42.5736C130.841 43.2747 131.09 44.1876 131.09 45.3122C131.09 46.1594 130.987 46.8751 130.783 47.4594C130.578 48.0436 130.242 48.5037 129.775 48.8397C129.322 49.1756 128.716 49.4239 127.957 49.5846C127.212 49.7452 126.284 49.8256 125.174 49.8256C124.663 49.8256 123.911 49.7891 122.917 49.716C121.939 49.643 120.829 49.4531 119.587 49.1464L119.828 46.2543C120.705 46.2689 121.479 46.2909 122.151 46.3201C122.837 46.3347 123.429 46.3493 123.925 46.3639C124.436 46.3639 124.838 46.3639 125.13 46.3639C125.627 46.3639 126.007 46.342 126.27 46.2982C126.532 46.2397 126.715 46.1448 126.817 46.0133C126.92 45.8673 126.971 45.6628 126.971 45.3999C126.971 45.1516 126.934 44.9544 126.861 44.8083C126.788 44.6623 126.657 44.5381 126.467 44.4359C126.291 44.3336 126.05 44.2314 125.744 44.1291L122.72 42.9241C121.523 42.4275 120.675 41.8359 120.179 41.1494C119.682 40.4629 119.434 39.5647 119.434 38.4546C119.434 37.5782 119.543 36.8625 119.762 36.3075C119.982 35.7524 120.318 35.3142 120.77 34.9929C121.238 34.6716 121.851 34.4452 122.611 34.3137C123.37 34.1676 124.283 34.0946 125.349 34.0946Z" fill="black" fill-opacity="0.2"/>
<path d="M105.702 34.3352C106.549 34.3352 107.411 34.3352 108.287 34.3352C109.178 34.3352 110.047 34.3571 110.894 34.4009C111.756 34.4301 112.545 34.4886 113.26 34.5762L113.063 37.5121H107.411C107.089 37.5121 106.841 37.5997 106.666 37.775C106.49 37.9357 106.403 38.1621 106.403 38.4542V45.4652C106.403 45.7573 106.49 45.991 106.666 46.1663C106.841 46.327 107.089 46.4073 107.411 46.4073H113.063L113.26 49.3432C112.545 49.4162 111.756 49.4746 110.894 49.5184C110.047 49.5477 109.178 49.5623 108.287 49.5623C107.411 49.5769 106.549 49.5842 105.702 49.5842C104.694 49.5842 103.876 49.2847 103.248 48.6859C102.62 48.087 102.306 47.3056 102.306 46.3416V37.5778C102.306 36.5992 102.62 35.8177 103.248 35.2335C103.876 34.6346 104.694 34.3352 105.702 34.3352ZM102.7 40.3384H112.274V43.1209H102.7V40.3384Z" fill="black"/>
<path d="M105.702 34.3352C106.549 34.3352 107.411 34.3352 108.287 34.3352C109.178 34.3352 110.047 34.3571 110.894 34.4009C111.756 34.4301 112.545 34.4886 113.26 34.5762L113.063 37.5121H107.411C107.089 37.5121 106.841 37.5997 106.666 37.775C106.49 37.9357 106.403 38.1621 106.403 38.4542V45.4652C106.403 45.7573 106.49 45.991 106.666 46.1663C106.841 46.327 107.089 46.4073 107.411 46.4073H113.063L113.26 49.3432C112.545 49.4162 111.756 49.4746 110.894 49.5184C110.047 49.5477 109.178 49.5623 108.287 49.5623C107.411 49.5769 106.549 49.5842 105.702 49.5842C104.694 49.5842 103.876 49.2847 103.248 48.6859C102.62 48.087 102.306 47.3056 102.306 46.3416V37.5778C102.306 36.5992 102.62 35.8177 103.248 35.2335C103.876 34.6346 104.694 34.3352 105.702 34.3352ZM102.7 40.3384H112.274V43.1209H102.7V40.3384Z" fill="black" fill-opacity="0.2"/>
<path d="M94.6634 34.1819C96.1824 34.1819 97.3729 34.3353 98.2346 34.642C99.0964 34.9342 99.7099 35.4454 100.075 36.1757C100.44 36.906 100.623 37.9285 100.623 39.243C100.623 40.5576 100.447 41.58 100.097 42.3103C99.761 43.0261 99.1986 43.53 98.4099 43.8221C97.6212 44.1142 96.5622 44.2603 95.233 44.2603C94.5319 44.2603 93.8308 44.2311 93.1297 44.1726C92.4432 44.0996 91.8006 44.012 91.2017 43.9097C90.6028 43.7929 90.0916 43.676 89.668 43.5592C89.2445 43.4277 88.9523 43.3182 88.7917 43.2305L88.8574 41.3025C89.763 41.3025 90.7051 41.3025 91.6837 41.3025C92.6623 41.3025 93.6263 41.3025 94.5758 41.3025C95.087 41.2879 95.4813 41.2295 95.7589 41.1272C96.0364 41.0104 96.2263 40.8059 96.3285 40.5138C96.4454 40.207 96.5038 39.7835 96.5038 39.243C96.5038 38.688 96.4454 38.2571 96.3285 37.9504C96.2263 37.6436 96.0364 37.4391 95.7589 37.3369C95.4813 37.2201 95.087 37.1616 94.5758 37.1616C93.1589 37.1616 91.9466 37.1689 90.9388 37.1835C89.931 37.1981 89.2445 37.2274 88.8793 37.2712L88.5507 34.401C89.1933 34.328 89.7995 34.2769 90.3691 34.2477C90.9388 34.2185 91.5596 34.2039 92.2314 34.2039C92.9033 34.1892 93.714 34.1819 94.6634 34.1819ZM92.6696 34.401V49.5186H88.5507V34.401H92.6696Z" fill="black"/>
<path d="M94.6634 34.1819C96.1824 34.1819 97.3729 34.3353 98.2346 34.642C99.0964 34.9342 99.7099 35.4454 100.075 36.1757C100.44 36.906 100.623 37.9285 100.623 39.243C100.623 40.5576 100.447 41.58 100.097 42.3103C99.761 43.0261 99.1986 43.53 98.4099 43.8221C97.6212 44.1142 96.5622 44.2603 95.233 44.2603C94.5319 44.2603 93.8308 44.2311 93.1297 44.1726C92.4432 44.0996 91.8006 44.012 91.2017 43.9097C90.6028 43.7929 90.0916 43.676 89.668 43.5592C89.2445 43.4277 88.9523 43.3182 88.7917 43.2305L88.8574 41.3025C89.763 41.3025 90.7051 41.3025 91.6837 41.3025C92.6623 41.3025 93.6263 41.3025 94.5758 41.3025C95.087 41.2879 95.4813 41.2295 95.7589 41.1272C96.0364 41.0104 96.2263 40.8059 96.3285 40.5138C96.4454 40.207 96.5038 39.7835 96.5038 39.243C96.5038 38.688 96.4454 38.2571 96.3285 37.9504C96.2263 37.6436 96.0364 37.4391 95.7589 37.3369C95.4813 37.2201 95.087 37.1616 94.5758 37.1616C93.1589 37.1616 91.9466 37.1689 90.9388 37.1835C89.931 37.1981 89.2445 37.2274 88.8793 37.2712L88.5507 34.401C89.1933 34.328 89.7995 34.2769 90.3691 34.2477C90.9388 34.2185 91.5596 34.2039 92.2314 34.2039C92.9033 34.1892 93.714 34.1819 94.6634 34.1819ZM92.6696 34.401V49.5186H88.5507V34.401H92.6696Z" fill="black" fill-opacity="0.2"/>
<path d="M81.8031 34.4013C82.1391 34.4013 82.4312 34.4962 82.6795 34.6861C82.9424 34.876 83.1177 35.1389 83.2053 35.4749L87.3462 49.5188H83.1396L80.4886 39.0899C80.4302 38.8416 80.379 38.5787 80.3352 38.3012C80.2914 38.0091 80.2476 37.7388 80.2038 37.4905H79.6122C79.583 37.7388 79.5392 38.0091 79.4807 38.3012C79.4369 38.5787 79.3858 38.8416 79.3274 39.0899L76.6763 49.5188H72.4697L76.6106 35.4749C76.6982 35.1389 76.8662 34.876 77.1145 34.6861C77.3774 34.4962 77.6769 34.4013 78.0128 34.4013H81.8031ZM83.8845 42.9679V45.9257H75.9314V42.9679H83.8845Z" fill="black"/>
<path d="M81.8031 34.4013C82.1391 34.4013 82.4312 34.4962 82.6795 34.6861C82.9424 34.876 83.1177 35.1389 83.2053 35.4749L87.3462 49.5188H83.1396L80.4886 39.0899C80.4302 38.8416 80.379 38.5787 80.3352 38.3012C80.2914 38.0091 80.2476 37.7388 80.2038 37.4905H79.6122C79.583 37.7388 79.5392 38.0091 79.4807 38.3012C79.4369 38.5787 79.3858 38.8416 79.3274 39.0899L76.6763 49.5188H72.4697L76.6106 35.4749C76.6982 35.1389 76.8662 34.876 77.1145 34.6861C77.3774 34.4962 77.6769 34.4013 78.0128 34.4013H81.8031ZM83.8845 42.9679V45.9257H75.9314V42.9679H83.8845Z" fill="black" fill-opacity="0.2"/>
<path d="M73.3432 34.4013L69.4653 48.4014C69.3776 48.7374 69.2024 49.0076 68.9394 49.2121C68.6911 49.4166 68.3917 49.5188 68.0412 49.5188H64.3823C64.0171 49.5188 63.7031 49.4166 63.4402 49.2121C63.1919 49.0076 63.0312 48.7374 62.9582 48.4014L59.0583 34.4013H63.2868L65.6092 44.7206C65.6676 44.9982 65.7261 45.283 65.7845 45.5751C65.8429 45.8672 65.894 46.1521 65.9379 46.4296H66.4637C66.5075 46.1521 66.5586 45.8672 66.617 45.5751C66.6755 45.283 66.7339 44.9982 66.7923 44.7206L69.1147 34.4013H73.3432Z" fill="black"/>
<path d="M73.3432 34.4013L69.4653 48.4014C69.3776 48.7374 69.2024 49.0076 68.9394 49.2121C68.6911 49.4166 68.3917 49.5188 68.0412 49.5188H64.3823C64.0171 49.5188 63.7031 49.4166 63.4402 49.2121C63.1919 49.0076 63.0312 48.7374 62.9582 48.4014L59.0583 34.4013H63.2868L65.6092 44.7206C65.6676 44.9982 65.7261 45.283 65.7845 45.5751C65.8429 45.8672 65.894 46.1521 65.9379 46.4296H66.4637C66.5075 46.1521 66.5586 45.8672 66.617 45.5751C66.6755 45.283 66.7339 44.9982 66.7923 44.7206L69.1147 34.4013H73.3432Z" fill="black" fill-opacity="0.2"/>
</svg>
