<svg width="24" height="24" viewBox="0 0 24 24" fill="none" xmlns="http://www.w3.org/2000/svg">
<path d="M6.02656 7.19727L2.47796 11.9287M2.47796 11.9287L6.02656 16.6602M2.47796 11.9287L16.6724 11.9287" stroke="#9E9E9E" stroke-width="1.6" stroke-linecap="round" stroke-linejoin="round"/>
<path d="M9.1145 7.19729V7.19729C9.1145 5.58175 9.1145 4.77399 9.41748 4.15202C9.71106 3.54935 10.198 3.06237 10.8007 2.7688C11.4227 2.46582 12.2304 2.46582 13.846 2.46582L15.0288 2.46582C17.774 2.46582 19.1466 2.46582 20.0164 3.29746C20.0488 3.32846 20.0805 3.36018 20.1115 3.3926C20.9432 4.26241 20.9432 5.63499 20.9432 8.38016L20.9432 15.4774C20.9432 18.2225 20.9432 19.5951 20.1115 20.4649C20.0805 20.4973 20.0488 20.529 20.0164 20.56C19.1466 21.3917 17.774 21.3917 15.0288 21.3917L13.846 21.3917C12.2304 21.3917 11.4227 21.3917 10.8007 21.0887C10.198 20.7951 9.71106 20.3082 9.41748 19.7055C9.1145 19.0835 9.1145 18.2758 9.1145 16.6602V16.6602" stroke="#9E9E9E" stroke-width="1.6" stroke-linecap="round"/>
</svg>
