<svg width="25" height="24" viewBox="0 0 25 24" fill="none" xmlns="http://www.w3.org/2000/svg">
<path d="M16.8761 3C16.0625 3.00095 15.2577 3.16858 14.5113 3.49256C13.7649 3.81653 13.0929 4.28999 12.5365 4.88372C11.7212 4.01358 10.6632 3.40862 9.49972 3.14739C8.33628 2.88616 7.12116 2.98072 6.01213 3.41878C4.9031 3.85685 3.95137 4.6182 3.2805 5.60399C2.60962 6.58978 2.25059 7.75448 2.25 8.94689C2.25 14.8681 11.8004 20.68 12.2151 20.9082C12.3151 20.9683 12.4295 21 12.5462 21C12.6628 21 12.7773 20.9683 12.8773 20.9082C13.2726 20.68 22.823 14.8681 22.823 8.94689C22.8213 7.3702 22.1942 5.85857 21.0794 4.74368C19.9645 3.62879 18.4528 3.0017 16.8761 3ZM12.5365 19.5999C10.8746 18.5391 3.53581 13.5823 3.53581 8.94689C3.53664 7.9568 3.85272 6.99269 4.43825 6.19428C5.02378 5.39588 5.84833 4.80467 6.79241 4.50633C7.73649 4.208 8.75104 4.21803 9.68903 4.53499C10.627 4.85195 11.4397 5.45935 12.0093 6.26918C12.0687 6.35342 12.1474 6.42216 12.2389 6.46961C12.3303 6.51706 12.4319 6.54182 12.5349 6.54182C12.638 6.54182 12.7395 6.51706 12.831 6.46961C12.9224 6.42216 13.0011 6.35342 13.0605 6.26918C13.6296 5.45796 14.4425 4.84924 15.3811 4.53139C16.3197 4.21354 17.3352 4.20311 18.2801 4.50161C19.2251 4.8001 20.0503 5.39199 20.636 6.19135C21.2217 6.99071 21.5374 7.95593 21.5372 8.94689C21.5372 13.579 14.1984 18.5359 12.5365 19.5999Z" fill="#FFFFFF"/>
<path d="M16.8761 3C16.0625 3.00095 15.2577 3.16858 14.5113 3.49256C13.7649 3.81653 13.0929 4.28999 12.5365 4.88372C11.7212 4.01358 10.6632 3.40862 9.49972 3.14739C8.33628 2.88616 7.12116 2.98072 6.01213 3.41878C4.9031 3.85685 3.95137 4.6182 3.2805 5.60399C2.60962 6.58978 2.25059 7.75448 2.25 8.94689C2.25 14.8681 11.8004 20.68 12.2151 20.9082C12.3151 20.9683 12.4295 21 12.5462 21C12.6628 21 12.7773 20.9683 12.8773 20.9082C13.2726 20.68 22.823 14.8681 22.823 8.94689C22.8213 7.3702 22.1942 5.85857 21.0794 4.74368C19.9645 3.62879 18.4528 3.0017 16.8761 3ZM12.5365 19.5999C10.8746 18.5391 3.53581 13.5823 3.53581 8.94689C3.53664 7.9568 3.85272 6.99269 4.43825 6.19428C5.02378 5.39588 5.84833 4.80467 6.79241 4.50633C7.73649 4.208 8.75104 4.21803 9.68903 4.53499C10.627 4.85195 11.4397 5.45935 12.0093 6.26918C12.0687 6.35342 12.1474 6.42216 12.2389 6.46961C12.3303 6.51706 12.4319 6.54182 12.5349 6.54182C12.638 6.54182 12.7395 6.51706 12.831 6.46961C12.9224 6.42216 13.0011 6.35342 13.0605 6.26918C13.6296 5.45796 14.4425 4.84924 15.3811 4.53139C16.3197 4.21354 17.3352 4.20311 18.2801 4.50161C19.2251 4.8001 20.0503 5.39199 20.636 6.19135C21.2217 6.99071 21.5374 7.95593 21.5372 8.94689C21.5372 13.579 14.1984 18.5359 12.5365 19.5999Z" fill="#FFFFFF" fill-opacity="0.2"/>
</svg>
