<svg width="14" height="13" viewBox="0 0 14 13" fill="none" xmlns="http://www.w3.org/2000/svg">
<path d="M9.9851 10.5006L9.973 10.5001L9.9609 10.5001C9.95538 10.5001 9.95054 10.4989 9.9469 10.4972L7.30819 9.16384L7.08268 9.04989L6.85718 9.16384L4.21531 10.4988L4.21452 10.4992C4.2102 10.5014 4.20404 10.503 4.19713 10.5025C4.19065 10.502 4.18576 10.4999 4.18283 10.498L4.69945 7.69059L4.74888 7.422L4.5496 7.23526L2.43624 5.2548L5.38585 4.84024L5.64425 4.80392L5.76223 4.57117L7.06245 2.00617L7.06245 2.00617L7.06316 2.00474C7.06345 2.0044 7.06437 2.00341 7.06639 2.00219C7.06997 2.00002 7.07567 1.99805 7.08268 1.99805C7.08969 1.99805 7.09539 2.00002 7.09898 2.00219C7.10088 2.00334 7.10181 2.00429 7.10215 2.00468L7.10419 2.00866L8.41995 4.56866L8.53842 4.79916L8.79506 4.83524L11.7447 5.2498L9.6313 7.23026L9.43203 7.417L9.48145 7.68559L9.99907 10.4984C9.99539 10.4998 9.99061 10.5008 9.9851 10.5006ZM11.7921 5.24539V5.24539ZM10.0014 10.4979C10.002 10.4966 10.0023 10.4966 10.0015 10.4973C10.0011 10.4977 10.0006 10.4982 9.99964 10.4988L10.0007 10.5003C10.0009 10.4994 10.0011 10.4986 10.0014 10.4979Z" fill="#FFFFFF" stroke="#FFFFFF"/>
</svg>
