<svg width="16" height="16" viewBox="0 0 16 16" fill="none" xmlns="http://www.w3.org/2000/svg">
<g clip-path="url(#clip0_385_4393)">
<path d="M13.6083 7.05566V14.8999H2.39177V7.05566H1.29211V15.4497C1.29211 15.7534 1.53824 15.9995 1.84193 15.9995H14.1581C14.4618 15.9995 14.7079 15.7534 14.7079 15.4497V7.05566H13.6083Z" fill="#FFFFFF"/>
<path d="M15.0928 3.00586H0.907205C0.603517 3.00586 0.357361 3.25198 0.357361 3.55567V7.05623C0.357361 7.35992 0.603486 7.60608 0.907205 7.60608H15.0928C15.3965 7.60608 15.6426 7.35995 15.6426 7.05623V3.5557C15.6426 3.25202 15.3965 3.00586 15.0928 3.00586ZM14.543 6.50645H1.45702V4.10555H14.5429V6.50645H14.543Z" fill="#FFFFFF"/>
<path d="M5.15925 0C4.06784 0 3.17987 0.912531 3.17987 2.03437C3.17987 3.17637 4.06784 4.10541 5.15925 4.10541V3.00572C4.68237 3.00572 4.27953 2.56091 4.27953 2.03434C4.27953 1.51897 4.67412 1.09962 5.1545 1.09962C6.8069 1.11391 7.46012 3.64422 7.46615 3.66897L8.53375 3.40541C8.49981 3.26725 7.66959 0.0218125 5.15925 0Z" fill="#FFFFFF"/>
<path d="M10.836 0C8.33041 0.0218125 7.50016 3.26725 7.46606 3.40544L8.53366 3.669C8.54006 3.64334 9.21031 1.11394 10.8408 1.09966C11.3259 1.09966 11.7205 1.519 11.7205 2.03437C11.7205 2.56094 11.3176 3.00575 10.8408 3.00575V4.10541C11.9322 4.10541 12.8201 3.17637 12.8201 2.03437C12.8201 0.912531 11.9322 0 10.836 0Z" fill="#FFFFFF"/>
<path d="M9.64946 3.55566H8.5498V15.4503H9.64946V3.55566Z" fill="#FFFFFF"/>
<path d="M7.45018 3.55566H6.35052V15.4503H7.45018V3.55566Z" fill="#FFFFFF"/>
</g>
<defs>
<clipPath id="clip0_385_4393">
<rect width="16" height="16" fill="white"/>
</clipPath>
</defs>
</svg>
