<svg width="25" height="24" viewBox="0 0 25 24" fill="none" xmlns="http://www.w3.org/2000/svg">
<path d="M16.3681 22.5H7.63807C6.65081 22.5366 5.68897 22.1822 4.96152 21.5138C4.23408 20.8453 3.79981 19.9168 3.75307 18.93V14.25C3.75307 14.051 3.83209 13.8603 3.97274 13.7196C4.11339 13.579 4.30416 13.5 4.50307 13.5C4.70198 13.5 4.89275 13.579 5.0334 13.7196C5.17405 13.8603 5.25307 14.051 5.25307 14.25V18.93C5.29916 19.519 5.57515 20.0664 6.0214 20.4537C6.46765 20.841 7.04835 21.0372 7.63807 21H16.3681C16.9578 21.0372 17.5385 20.841 17.9847 20.4537C18.431 20.0664 18.707 19.519 18.7531 18.93V14.25C18.7531 14.051 18.8321 13.8603 18.9727 13.7196C19.1134 13.579 19.3042 13.5 19.5031 13.5C19.702 13.5 19.8927 13.579 20.0334 13.7196C20.1741 13.8603 20.2531 14.051 20.2531 14.25V18.93C20.2063 19.9168 19.7721 20.8453 19.0446 21.5138C18.3172 22.1822 17.3553 22.5366 16.3681 22.5ZM22.2856 12.5325C22.3559 12.4627 22.4117 12.3798 22.4497 12.2884C22.4878 12.197 22.5074 12.099 22.5074 12C22.5074 11.9009 22.4878 11.8029 22.4497 11.7115C22.4117 11.6201 22.3559 11.5372 22.2856 11.4675L12.5356 1.71745C12.4658 1.64716 12.3829 1.59136 12.2915 1.55329C12.2001 1.51521 12.1021 1.49561 12.0031 1.49561C11.9041 1.49561 11.806 1.51521 11.7146 1.55329C11.6232 1.59136 11.5403 1.64716 11.4706 1.71745L1.72057 11.4675C1.57934 11.6087 1.5 11.8002 1.5 12C1.5 12.1997 1.57934 12.3912 1.72057 12.5325C1.8618 12.6737 2.05334 12.753 2.25307 12.753C2.45279 12.753 2.64434 12.6737 2.78557 12.5325L12.0031 3.30745L21.2206 12.5325C21.2903 12.6027 21.3732 12.6585 21.4646 12.6966C21.556 12.7347 21.6541 12.7543 21.7531 12.7543C21.8521 12.7543 21.9501 12.7347 22.0415 12.6966C22.1329 12.6585 22.2158 12.6027 22.2856 12.5325Z" fill="#FFFFFF"/>
<path d="M16.3681 22.5H7.63807C6.65081 22.5366 5.68897 22.1822 4.96152 21.5138C4.23408 20.8453 3.79981 19.9168 3.75307 18.93V14.25C3.75307 14.051 3.83209 13.8603 3.97274 13.7196C4.11339 13.579 4.30416 13.5 4.50307 13.5C4.70198 13.5 4.89275 13.579 5.0334 13.7196C5.17405 13.8603 5.25307 14.051 5.25307 14.25V18.93C5.29916 19.519 5.57515 20.0664 6.0214 20.4537C6.46765 20.841 7.04835 21.0372 7.63807 21H16.3681C16.9578 21.0372 17.5385 20.841 17.9847 20.4537C18.431 20.0664 18.707 19.519 18.7531 18.93V14.25C18.7531 14.051 18.8321 13.8603 18.9727 13.7196C19.1134 13.579 19.3042 13.5 19.5031 13.5C19.702 13.5 19.8927 13.579 20.0334 13.7196C20.1741 13.8603 20.2531 14.051 20.2531 14.25V18.93C20.2063 19.9168 19.7721 20.8453 19.0446 21.5138C18.3172 22.1822 17.3553 22.5366 16.3681 22.5ZM22.2856 12.5325C22.3559 12.4627 22.4117 12.3798 22.4497 12.2884C22.4878 12.197 22.5074 12.099 22.5074 12C22.5074 11.9009 22.4878 11.8029 22.4497 11.7115C22.4117 11.6201 22.3559 11.5372 22.2856 11.4675L12.5356 1.71745C12.4658 1.64716 12.3829 1.59136 12.2915 1.55329C12.2001 1.51521 12.1021 1.49561 12.0031 1.49561C11.9041 1.49561 11.806 1.51521 11.7146 1.55329C11.6232 1.59136 11.5403 1.64716 11.4706 1.71745L1.72057 11.4675C1.57934 11.6087 1.5 11.8002 1.5 12C1.5 12.1997 1.57934 12.3912 1.72057 12.5325C1.8618 12.6737 2.05334 12.753 2.25307 12.753C2.45279 12.753 2.64434 12.6737 2.78557 12.5325L12.0031 3.30745L21.2206 12.5325C21.2903 12.6027 21.3732 12.6585 21.4646 12.6966C21.556 12.7347 21.6541 12.7543 21.7531 12.7543C21.8521 12.7543 21.9501 12.7347 22.0415 12.6966C22.1329 12.6585 22.2158 12.6027 22.2856 12.5325Z" fill="#FFFFFF" fill-opacity="0.2"/>
</svg>
