<svg width="24" height="24" viewBox="0 0 24 24" fill="none" xmlns="http://www.w3.org/2000/svg">
<path fill-rule="evenodd" clip-rule="evenodd" d="M12.0001 3.69274C10.2309 3.69274 8.53422 4.39553 7.28324 5.64651C6.03226 6.89748 5.32947 8.59417 5.32947 10.3633C5.32947 12.9484 7.00803 15.4385 8.82136 17.3526C9.71386 18.2947 10.6087 19.0655 11.2812 19.601C11.5683 19.8296 11.8139 20.0145 12.0001 20.1508C12.1863 20.0145 12.4318 19.8296 12.7189 19.601C13.3914 19.0655 14.2863 18.2947 15.1788 17.3526C16.9921 15.4385 18.6706 12.9484 18.6706 10.3633C18.6706 8.59418 17.9679 6.89748 16.7169 5.64651C15.4659 4.39553 13.7692 3.69274 12.0001 3.69274ZM12.0001 20.9997C11.6156 21.5763 11.6154 21.5762 11.6152 21.5761L11.6131 21.5746L11.6078 21.5711L11.5895 21.5587C11.5739 21.5481 11.5515 21.5328 11.5228 21.5129C11.4653 21.4731 11.3825 21.4149 11.2779 21.3394C11.0688 21.1884 10.7724 20.9677 10.4178 20.6853C9.70959 20.1214 8.76353 19.307 7.81512 18.3059C5.94664 16.3336 3.94337 13.5055 3.94337 10.3633C3.94337 8.22656 4.7922 6.17731 6.30312 4.66639C7.81404 3.15547 9.86329 2.30664 12.0001 2.30664C14.1368 2.30664 16.1861 3.15547 17.697 4.66639C19.2079 6.17731 20.0567 8.22656 20.0567 10.3633C20.0567 13.5055 18.0535 16.3336 16.185 18.3059C15.2366 19.307 14.2905 20.1214 13.5823 20.6853C13.2277 20.9677 12.9313 21.1884 12.7222 21.3394C12.6177 21.4149 12.5348 21.4731 12.4774 21.5129C12.4486 21.5328 12.4262 21.5481 12.4106 21.5587L12.3923 21.5711L12.3871 21.5746L12.3854 21.5757C12.3852 21.5758 12.3845 21.5763 12.0001 20.9997ZM12.0001 20.9997L12.3845 21.5763C12.1517 21.7315 11.848 21.7313 11.6152 21.5761L12.0001 20.9997Z" fill="#9E9E9E"/>
<path fill-rule="evenodd" clip-rule="evenodd" d="M12.0001 8.60094C11.0272 8.60094 10.2386 9.38959 10.2386 10.3624C10.2386 11.3353 11.0272 12.1239 12.0001 12.1239C12.9729 12.1239 13.7616 11.3353 13.7616 10.3624C13.7616 9.38959 12.9729 8.60094 12.0001 8.60094ZM8.85248 10.3624C8.85248 8.62407 10.2617 7.21484 12.0001 7.21484C13.7384 7.21484 15.1477 8.62407 15.1477 10.3624C15.1477 12.1008 13.7384 13.51 12.0001 13.51C10.2617 13.51 8.85248 12.1008 8.85248 10.3624Z" fill="#9E9E9E"/>
</svg>
