<svg width="20" height="22" viewBox="0 0 20 22" fill="none" xmlns="http://www.w3.org/2000/svg">
<path d="M18.1667 19.0004H1.83325C1.44846 19.0004 1.07342 18.8793 0.761274 18.6543C0.449128 18.4293 0.215698 18.1117 0.0940563 17.7467C-0.0275854 17.3816 -0.0312712 16.9875 0.0835211 16.6203C0.198313 16.253 0.425763 15.9312 0.733646 15.7004L1.55715 15.0827C1.86706 14.8511 2.07499 14.5083 2.13715 14.1264L3.17035 7.85442C3.4226 6.22356 4.25013 4.7368 5.50326 3.66303C6.7564 2.58925 8.35241 1.99935 10.0027 2C11.6529 2.00065 13.2485 2.59182 14.5007 3.66658C15.753 4.74135 16.5794 6.22876 16.8303 7.85982L17.8628 14.1264C17.925 14.5083 18.1329 14.8511 18.4428 15.0827L19.2666 15.7004C19.5745 15.9312 19.802 16.253 19.9168 16.6204C20.0316 16.9877 20.0279 17.3818 19.9062 17.7469C19.7845 18.112 19.551 18.4295 19.2388 18.6545C18.9266 18.8795 18.5516 19.0005 18.1667 19.0004ZM10.0007 3.00037C8.58703 2.99351 7.21819 3.49634 6.1451 4.41671C5.072 5.33709 4.36652 6.61336 4.15795 8.01162L3.124 14.2889C3.02026 14.9252 2.67369 15.4965 2.15725 15.8825L1.3335 16.5004C1.19352 16.6053 1.09012 16.7516 1.03793 16.9185C0.985752 17.0855 0.987438 17.2647 1.04276 17.4306C1.09807 17.5966 1.20421 17.7409 1.34614 17.8432C1.48806 17.9454 1.65857 18.0004 1.8335 18.0004H18.167C18.3419 18.0004 18.5123 17.9454 18.6542 17.8431C18.7961 17.7409 18.9022 17.5966 18.9575 17.4307C19.0128 17.2648 19.0145 17.0857 18.9624 16.9188C18.9102 16.7518 18.8069 16.6055 18.667 16.5006L17.843 15.8825C17.3265 15.4965 16.98 14.9252 16.8762 14.2889L15.8427 8.01697C15.6352 6.61794 14.9303 5.34061 13.8573 4.4192C12.7843 3.49779 11.4151 2.99405 10.0007 3.00037Z" fill="#FFFFFF"/>
<path d="M11.5 3.18C11.3674 3.18 11.2402 3.12732 11.1464 3.03355C11.0527 2.93979 11 2.81261 11 2.68V2C11 1.73478 10.8946 1.48043 10.7071 1.29289C10.5196 1.10536 10.2652 1 10 1C9.73478 1 9.48043 1.10536 9.29289 1.29289C9.10536 1.48043 9 1.73478 9 2V2.68C9 2.81261 8.94732 2.93979 8.85355 3.03355C8.75979 3.12732 8.63261 3.18 8.5 3.18C8.36739 3.18 8.24021 3.12732 8.14645 3.03355C8.05268 2.93979 8 2.81261 8 2.68V2C8 1.46957 8.21071 0.960859 8.58579 0.585786C8.96086 0.210714 9.46957 0 10 0C10.5304 0 11.0391 0.210714 11.4142 0.585786C11.7893 0.960859 12 1.46957 12 2V2.68C12 2.81261 11.9473 2.93979 11.8536 3.03355C11.7598 3.12732 11.6326 3.18 11.5 3.18Z" fill="#FFFFFF"/>
<path d="M10 22C9.07206 21.999 8.18242 21.6299 7.52627 20.9737C6.87011 20.3176 6.50103 19.4279 6.5 18.5C6.5 18.3674 6.55268 18.2402 6.64645 18.1464C6.74021 18.0527 6.86739 18 7 18C7.13261 18 7.25979 18.0527 7.35355 18.1464C7.44732 18.2402 7.5 18.3674 7.5 18.5C7.5 19.163 7.76339 19.7989 8.23223 20.2678C8.70107 20.7366 9.33696 21 10 21C10.663 21 11.2989 20.7366 11.7678 20.2678C12.2366 19.7989 12.5 19.163 12.5 18.5C12.5 18.3674 12.5527 18.2402 12.6464 18.1464C12.7402 18.0527 12.8674 18 13 18C13.1326 18 13.2598 18.0527 13.3536 18.1464C13.4473 18.2402 13.5 18.3674 13.5 18.5C13.499 19.4279 13.1299 20.3176 12.4737 20.9737C11.8176 21.6299 10.9279 21.999 10 22Z" fill="#FFFFFF"/>
</svg>
