<svg width="24" height="24" viewBox="0 0 24 24" fill="none" xmlns="http://www.w3.org/2000/svg">
<path fill-rule="evenodd" clip-rule="evenodd" d="M7.72216 0.110415C8.11586 0.337714 8.25075 0.841128 8.02345 1.23482L6.20173 4.39013H15.0045L13.1827 1.23482C12.9554 0.841128 13.0903 0.337714 13.484 0.110415C13.8777 -0.116884 14.3811 0.0180052 14.6084 0.411699L16.8034 4.21354C16.8363 4.27049 16.8616 4.32975 16.8796 4.39013H17.1881C18.8549 4.39013 20.2062 5.74138 20.2062 7.40824C20.2062 8.35113 19.7738 9.19304 19.0965 9.74649L18.8407 11.5049C18.3322 11.3109 17.7937 11.1776 17.234 11.1138L17.3346 10.4229C17.286 10.4252 17.2372 10.4264 17.1881 10.4264H4.01812C3.96901 10.4264 3.92017 10.4252 3.87164 10.4229L4.46293 14.4876L4.94192 16.7318C5.09116 17.431 5.66198 17.9621 6.37014 18.0607C7.52967 18.222 8.69612 18.3167 9.86378 18.3449C9.91828 18.9204 10.0463 19.4746 10.2382 19.9979C8.86974 19.9825 7.502 19.8803 6.14327 19.6912C4.74931 19.4973 3.6257 18.4518 3.33193 17.0754L2.84164 14.7782L2.10967 9.74649C1.43238 9.19304 1 8.35113 1 7.40824C1 5.74138 2.35126 4.39013 4.01812 4.39013H4.32654C4.34458 4.32975 4.36988 4.27049 4.40277 4.21354L6.59776 0.411699C6.82506 0.0180052 7.32847 -0.116884 7.72216 0.110415ZM4.01812 6.03637C3.26045 6.03637 2.64625 6.65058 2.64625 7.40824C2.64625 8.1659 3.26045 8.78011 4.01812 8.78011H17.1881C17.9457 8.78011 18.5599 8.1659 18.5599 7.40824C18.5599 6.65058 17.9457 6.03637 17.1881 6.03637H4.01812Z" fill="#9E9E9E"/>
<circle cx="16.4742" cy="17.7112" r="5.12609" fill="white" stroke="#9E9E9E" stroke-width="1.6"/>
<path d="M14.4165 17.3297L16.0427 18.9559L18.5319 16.4668" stroke="#9E9E9E" stroke-width="1.6"/>
</svg>
