<svg width="24" height="24" viewBox="0 0 24 24" fill="none" xmlns="http://www.w3.org/2000/svg">
<path fill-rule="evenodd" clip-rule="evenodd" d="M7.12273 7.00617C7.12273 4.24134 9.36406 2 12.1289 2C14.8937 2 17.1351 4.24134 17.1351 7.00617C17.1351 9.771 14.8937 12.0123 12.1289 12.0123C9.36406 12.0123 7.12273 9.771 7.12273 7.00617ZM12.1289 3.76688C10.3399 3.76688 8.88961 5.21716 8.88961 7.00617C8.88961 8.79518 10.3399 10.2455 12.1289 10.2455C13.9179 10.2455 15.3682 8.79518 15.3682 7.00617C15.3682 5.21716 13.9179 3.76688 12.1289 3.76688Z" fill="#9E9E9E"/>
<path fill-rule="evenodd" clip-rule="evenodd" d="M7.41721 15.5461C5.95347 15.5461 4.76688 16.7327 4.76688 18.1964V19.5961C4.76688 19.6174 4.78233 19.6356 4.80336 19.639C9.65493 20.4311 14.6029 20.4311 19.4544 19.639C19.4755 19.6356 19.4909 19.6174 19.4909 19.5961V18.1964C19.4909 16.7327 18.3043 15.5461 16.8406 15.5461H16.4391C16.408 15.5461 16.3772 15.551 16.3477 15.5606L15.3281 15.8935C13.2493 16.5723 11.0085 16.5723 8.92964 15.8935L7.91013 15.5606C7.88062 15.551 7.84977 15.5461 7.81872 15.5461H7.41721ZM3 18.1964C3 15.7569 4.97765 13.7792 7.41721 13.7792H7.81872C8.03604 13.7792 8.25199 13.8136 8.45858 13.881L9.47808 14.2139C11.2005 14.7764 13.0572 14.7764 14.7797 14.2139L15.7992 13.881C16.0058 13.8136 16.2217 13.7792 16.4391 13.7792H16.8406C19.2801 13.7792 21.2578 15.7569 21.2578 18.1964V19.5961C21.2578 20.4834 20.6148 21.2399 19.7391 21.3828C14.699 22.2057 9.55879 22.2057 4.51866 21.3828C3.64301 21.2399 3 20.4834 3 19.5961V18.1964Z" fill="#9E9E9E"/>
</svg>
