<svg width="32" height="32" viewBox="0 0 32 32" fill="none" xmlns="http://www.w3.org/2000/svg">
<rect width="32" height="32" rx="5.12" fill="#F7CD47"/>
<g clip-path="url(#clip0_370_3681)">
<path d="M20.4591 17.8355C20.1447 17.5081 19.7654 17.333 19.3634 17.333C18.9646 17.333 18.5821 17.5048 18.2547 17.8323L17.2303 18.8534C17.146 18.8081 17.0617 18.7659 16.9806 18.7238C16.8639 18.6654 16.7537 18.6103 16.6597 18.5519C15.7001 17.9425 14.8281 17.1482 13.9917 16.1206C13.5864 15.6084 13.3141 15.1772 13.1164 14.7396C13.3822 14.4964 13.6286 14.2436 13.8685 14.0004C13.9592 13.9096 14.05 13.8156 14.1408 13.7249C14.8216 13.0441 14.8216 12.1623 14.1408 11.4815L13.2558 10.5965C13.1553 10.496 13.0515 10.3923 12.9543 10.2885C12.7598 10.0875 12.5555 9.88004 12.3448 9.68553C12.0304 9.37432 11.6543 9.20898 11.2588 9.20898C10.8633 9.20898 10.4808 9.37432 10.1566 9.68553C10.1533 9.68878 10.1533 9.68878 10.1501 9.69202L9.04787 10.804C8.63292 11.2189 8.39626 11.7246 8.34439 12.3114C8.26659 13.258 8.54539 14.1398 8.75935 14.7169C9.28453 16.1335 10.069 17.4465 11.2394 18.8534C12.6593 20.5489 14.3677 21.8878 16.3193 22.8312C17.0649 23.1845 18.0602 23.6027 19.1721 23.674C19.2402 23.6773 19.3115 23.6805 19.3764 23.6805C20.1252 23.6805 20.7541 23.4115 21.2469 22.8766C21.2501 22.8701 21.2566 22.8668 21.2599 22.8603C21.4284 22.6561 21.6229 22.4713 21.8272 22.2736C21.9666 22.1407 22.1092 22.0013 22.2486 21.8554C22.5696 21.5215 22.7381 21.1324 22.7381 20.7337C22.7381 20.3317 22.5663 19.9459 22.2389 19.6218L20.4591 17.8355ZM21.6197 21.2492C21.6165 21.2492 21.6165 21.2524 21.6197 21.2492C21.4933 21.3853 21.3636 21.5085 21.2242 21.6447C21.0135 21.8457 20.7995 22.0564 20.5985 22.293C20.2711 22.6431 19.8853 22.8085 19.3796 22.8085C19.331 22.8085 19.2791 22.8085 19.2305 22.8052C18.2676 22.7436 17.3729 22.3676 16.7018 22.0466C14.867 21.1584 13.2558 19.8973 11.9169 18.2991C10.8114 16.9667 10.0723 15.7348 9.58277 14.4121C9.28128 13.6049 9.17106 12.976 9.21969 12.3827C9.25211 12.0034 9.39799 11.689 9.66706 11.4199L10.7725 10.3144C10.9314 10.1653 11.1 10.0843 11.2653 10.0843C11.4695 10.0843 11.6349 10.2075 11.7386 10.3112C11.7418 10.3144 11.7451 10.3177 11.7483 10.3209C11.9461 10.5057 12.1341 10.697 12.3318 10.9012C12.4323 11.005 12.5361 11.1087 12.6398 11.2157L13.5248 12.1007C13.8685 12.4443 13.8685 12.762 13.5248 13.1057C13.4308 13.1997 13.3401 13.2937 13.246 13.3845C12.9737 13.6633 12.7144 13.9226 12.4323 14.1755C12.4259 14.182 12.4194 14.1852 12.4161 14.1917C12.1373 14.4705 12.1892 14.7428 12.2476 14.9276C12.2508 14.9373 12.254 14.947 12.2573 14.9568C12.4875 15.5143 12.8116 16.0395 13.3044 16.6652L13.3076 16.6684C14.2024 17.7707 15.1458 18.6298 16.1864 19.2878C16.3193 19.3721 16.4555 19.4402 16.5851 19.505C16.7018 19.5634 16.8121 19.6185 16.9061 19.6769C16.919 19.6833 16.932 19.6931 16.945 19.6996C17.0552 19.7547 17.1589 19.7806 17.2659 19.7806C17.535 19.7806 17.7036 19.612 17.7587 19.5569L18.8674 18.4482C18.9776 18.338 19.1527 18.2051 19.3569 18.2051C19.5579 18.2051 19.7232 18.3315 19.8237 18.4417C19.827 18.445 19.827 18.445 19.8302 18.4482L21.6165 20.2345C21.9504 20.5651 21.9504 20.9055 21.6197 21.2492Z" fill="white"/>
<path d="M16.621 11.9746C17.4703 12.1173 18.2419 12.5193 18.8578 13.1352C19.4738 13.7512 19.8725 14.5227 20.0184 15.3721C20.0541 15.586 20.2389 15.7352 20.4496 15.7352C20.4755 15.7352 20.4982 15.7319 20.5241 15.7287C20.764 15.6898 20.9229 15.4628 20.884 15.2229C20.7089 14.1953 20.2227 13.2584 19.4803 12.516C18.7379 11.7736 17.801 11.2874 16.7733 11.1123C16.5335 11.0734 16.3098 11.2323 16.2676 11.4689C16.2255 11.7056 16.3811 11.9357 16.621 11.9746Z" fill="white"/>
<path d="M23.6621 15.0959C23.3735 13.4037 22.576 11.8638 21.3506 10.6384C20.1252 9.413 18.5853 8.61551 16.8931 8.32698C16.6565 8.28484 16.4328 8.44693 16.3906 8.68359C16.3517 8.92348 16.5106 9.14717 16.7505 9.18931C18.2612 9.44542 19.6389 10.1619 20.7347 11.2544C21.8304 12.3501 22.5436 13.7279 22.7997 15.2386C22.8354 15.4525 23.0202 15.6017 23.2309 15.6017C23.2568 15.6017 23.2795 15.5984 23.3055 15.5952C23.5421 15.5595 23.7042 15.3326 23.6621 15.0959Z" fill="white"/>
</g>
<defs>
<clipPath id="clip0_370_3681">
<rect width="15.36" height="15.36" fill="white" transform="translate(8.31982 8.32031)"/>
</clipPath>
</defs>
</svg>
