<svg width="24" height="24" viewBox="0 0 24 24" fill="none" xmlns="http://www.w3.org/2000/svg">
<path fill-rule="evenodd" clip-rule="evenodd" d="M7.37753 9.62295C6.92336 9.16881 6.78749 8.48579 7.03327 7.8924C7.27905 7.29901 7.85808 6.91211 8.50036 6.91211C9.14264 6.91211 9.72167 7.29901 9.96745 7.8924C10.2132 8.48579 10.0774 9.16881 9.62319 9.62295C9.00306 10.2431 7.99766 10.2431 7.37753 9.62295Z" stroke="#9E9E9E" stroke-width="1.6" stroke-linecap="round" stroke-linejoin="round"/>
<path fill-rule="evenodd" clip-rule="evenodd" d="M14.1123 16.3583C13.6582 15.9042 13.5223 15.2211 13.7681 14.6278C14.0139 14.0344 14.5929 13.6475 15.2352 13.6475C15.8774 13.6475 16.4565 14.0344 16.7023 14.6278C16.948 15.2211 16.8122 15.9042 16.358 16.3583C15.7379 16.9784 14.7325 16.9784 14.1123 16.3583V16.3583Z" stroke="#9E9E9E" stroke-width="1.6" stroke-linecap="round"/>
<path d="M16.3589 7.37793L7.37703 16.3598" stroke="#9E9E9E" stroke-width="1.6" stroke-linecap="round"/>
<circle cx="11.8678" cy="11.8678" r="10.0678" stroke="#9E9E9E" stroke-width="1.6"/>
</svg>
