<svg width="24" height="24" viewBox="0 0 24 24" fill="none" xmlns="http://www.w3.org/2000/svg">
<path d="M19.9814 4.96975C20.7283 6.08763 20.7283 7.6438 20.7283 10.7561C20.7283 13.8685 20.7283 15.4247 19.9814 16.5425C19.658 17.0265 19.2425 17.442 18.7586 17.7653C17.782 18.4179 16.471 18.5004 14.0802 18.5108V18.5123L12.8552 20.9623C12.4469 21.779 11.2815 21.779 10.8731 20.9623L9.64812 18.5123V18.5108C7.25735 18.5004 5.94631 18.4179 4.96975 17.7653C4.48581 17.442 4.0703 17.0265 3.74694 16.5425C3 15.4247 3 13.8685 3 10.7561C3 7.6438 3 6.08763 3.74694 4.96975C4.0703 4.48581 4.48581 4.0703 4.96975 3.74694C6.08763 3 7.6438 3 10.7561 3H12.9722C16.0845 3 17.6407 3 18.7586 3.74694C19.2425 4.0703 19.658 4.48581 19.9814 4.96975Z" stroke="#9E9E9E" stroke-width="1.6" stroke-linecap="round" stroke-linejoin="round"/>
<path d="M8.54004 8.54004L15.1882 8.54004" stroke="#9E9E9E" stroke-width="1.6" stroke-linecap="round" stroke-linejoin="round"/>
<path d="M10.2021 12.9727H13.5262" stroke="#9E9E9E" stroke-width="1.6" stroke-linecap="round" stroke-linejoin="round"/>
</svg>
