<svg width="24" height="24" viewBox="0 0 24 24" fill="none" xmlns="http://www.w3.org/2000/svg">
<g clip-path="url(#clip0_353_2445)">
<mask id="mask0_353_2445" style="mask-type:luminance" maskUnits="userSpaceOnUse" x="2" y="2" width="21" height="21">
<path d="M2.33322 2.33496H22.3332V22.335H2.33322V2.33496Z" fill="white"/>
</mask>
<g mask="url(#mask0_353_2445)">
<path d="M14.216 5.04125C14.9067 5.21949 15.5591 5.49313 16.1582 5.84742C16.1582 5.84742 16.4468 5.55871 16.771 5.23453C17.0064 4.99891 17.3258 4.86676 17.6588 4.86676C17.9913 4.86676 18.3108 4.99891 18.5462 5.23453C18.8317 5.52012 19.1481 5.83641 19.4336 6.12199C19.6693 6.35735 19.8014 6.6768 19.8014 7.00942C19.8014 7.34238 19.6693 7.6618 19.4336 7.89715C19.1094 8.22133 18.8208 8.51 18.8208 8.51C19.175 9.10906 19.4486 9.76145 19.6269 10.4521H20.492C21.1853 10.4521 21.7473 11.0142 21.7473 11.7073V12.9626C21.7473 13.6557 21.1853 14.2178 20.492 14.2178H19.6269C19.4486 14.9084 19.175 15.5609 18.8208 16.1599C18.8208 16.1599 19.1094 16.4486 19.4336 16.7727C19.6693 17.0081 19.8014 17.3275 19.8014 17.6605C19.8014 17.9931 19.6693 18.3126 19.4336 18.5479C19.1481 18.8335 18.8317 19.1498 18.5462 19.4354C18.3108 19.671 17.9913 19.8031 17.6588 19.8031C17.3258 19.8031 17.0064 19.671 16.771 19.4354C16.4468 19.1112 16.1582 18.8225 16.1582 18.8225C15.5591 19.1768 14.9067 19.4504 14.216 19.6286V20.4938C14.216 21.187 13.654 21.749 12.9608 21.749H11.7056C11.0124 21.749 10.4504 21.187 10.4504 20.4938V19.6286C9.75974 19.4504 9.10732 19.1768 8.50826 18.8225C8.50826 18.8225 8.21959 19.1112 7.89541 19.4354C7.66006 19.671 7.3406 19.8031 7.00767 19.8031C6.67506 19.8031 6.35557 19.671 6.12025 19.4354C5.83471 19.1498 5.51838 18.8335 5.23279 18.5479C4.99717 18.3126 4.86502 17.9931 4.86502 17.6605C4.86502 17.3275 4.99717 17.0081 5.23279 16.7727C5.55697 16.4486 5.84568 16.1599 5.84568 16.1599C5.49139 15.5609 5.21779 14.9084 5.03951 14.2178H4.17439C3.48119 14.2178 2.91916 13.6557 2.91916 12.9626V11.7073C2.91916 11.0142 3.48119 10.4521 4.17439 10.4521H5.03951C5.21779 9.76145 5.49139 9.10906 5.84568 8.51C5.84568 8.51 5.55697 8.22133 5.23279 7.89715C4.99717 7.6618 4.86502 7.34238 4.86502 7.00942C4.86502 6.6768 4.99717 6.35735 5.23279 6.12199C5.51838 5.83641 5.83471 5.52012 6.12025 5.23453C6.35557 4.99891 6.67506 4.86676 7.00767 4.86676C7.3406 4.86676 7.66006 4.99891 7.89541 5.23453C8.21959 5.55871 8.50826 5.84742 8.50826 5.84742C9.10732 5.49313 9.75974 5.21949 10.4504 5.04125V4.1761C10.4504 3.48289 11.0124 2.9209 11.7056 2.9209H12.9608C13.654 2.9209 14.216 3.48289 14.216 4.1761V5.04125Z" stroke="#9E9E9E" stroke-width="1.17187" stroke-miterlimit="10" stroke-linecap="round" stroke-linejoin="round"/>
<path d="M12.3333 8.56934C14.4116 8.56934 16.0989 10.2566 16.0989 12.335C16.0989 14.4132 14.4116 16.1006 12.3333 16.1006C10.2549 16.1006 8.56764 14.4132 8.56764 12.335C8.56764 10.2566 10.2549 8.56934 12.3333 8.56934Z" stroke="#9E9E9E" stroke-width="1.17187" stroke-miterlimit="10" stroke-linecap="round" stroke-linejoin="round"/>
</g>
</g>
<defs>
<clipPath id="clip0_353_2445">
<rect width="20" height="20" fill="white" transform="translate(2.33337 2.33301)"/>
</clipPath>
</defs>
</svg>
