<svg width="25" height="24" viewBox="0 0 25 24" fill="none" xmlns="http://www.w3.org/2000/svg">
<path fill-rule="evenodd" clip-rule="evenodd" d="M22.2889 3.2H5.53928L4.10816 0.492284C3.94753 0.188357 3.64364 0 3.31393 0H1.49498C0.992693 0 0.585508 0.429807 0.585508 0.96C0.585508 1.49019 0.992693 1.92 1.49498 1.92H2.77989L4.19223 4.59219L7.44945 12.1995L7.45279 12.2073L7.73968 12.8773L4.4694 16.5594C4.23426 16.8242 4.16065 17.2063 4.27917 17.5469C4.39768 17.8876 4.68805 18.1286 5.02963 18.1698L8.01044 18.5294C11.7389 18.9792 15.5037 18.9792 19.2322 18.5294L22.213 18.1698C22.712 18.1096 23.0704 17.6338 23.0133 17.107C22.9563 16.5802 22.5055 16.202 22.0065 16.2622L19.0257 16.6218C15.4345 17.055 11.8082 17.055 8.21698 16.6218L7.03403 16.4791L9.43429 13.7766C9.45751 13.7504 9.47907 13.7233 9.49898 13.6953L10.4119 13.8207C11.6911 13.9964 12.9842 14.0308 14.2702 13.9234C17.2696 13.673 20.0495 12.1665 21.9902 9.73961L22.6912 8.86304C22.7148 8.8336 22.7366 8.8027 22.7566 8.77049L24.0631 6.66892C24.9891 5.1793 23.9768 3.2 22.2889 3.2ZM9.56659 11.7684C9.366 11.7408 9.19304 11.6063 9.10859 11.4125L9.10697 11.4088L6.41431 5.12H22.2889C22.53 5.12 22.6746 5.40276 22.5423 5.61556L21.2659 7.66878L20.6003 8.50115C18.9729 10.5362 16.6419 11.7995 14.1268 12.0094C12.9668 12.1063 11.8004 12.0752 10.6466 11.9167L9.56659 11.7684Z" fill="#FFFFFF"/>
<path fill-rule="evenodd" clip-rule="evenodd" d="M22.2889 3.2H5.53928L4.10816 0.492284C3.94753 0.188357 3.64364 0 3.31393 0H1.49498C0.992693 0 0.585508 0.429807 0.585508 0.96C0.585508 1.49019 0.992693 1.92 1.49498 1.92H2.77989L4.19223 4.59219L7.44945 12.1995L7.45279 12.2073L7.73968 12.8773L4.4694 16.5594C4.23426 16.8242 4.16065 17.2063 4.27917 17.5469C4.39768 17.8876 4.68805 18.1286 5.02963 18.1698L8.01044 18.5294C11.7389 18.9792 15.5037 18.9792 19.2322 18.5294L22.213 18.1698C22.712 18.1096 23.0704 17.6338 23.0133 17.107C22.9563 16.5802 22.5055 16.202 22.0065 16.2622L19.0257 16.6218C15.4345 17.055 11.8082 17.055 8.21698 16.6218L7.03403 16.4791L9.43429 13.7766C9.45751 13.7504 9.47907 13.7233 9.49898 13.6953L10.4119 13.8207C11.6911 13.9964 12.9842 14.0308 14.2702 13.9234C17.2696 13.673 20.0495 12.1665 21.9902 9.73961L22.6912 8.86304C22.7148 8.8336 22.7366 8.8027 22.7566 8.77049L24.0631 6.66892C24.9891 5.1793 23.9768 3.2 22.2889 3.2ZM9.56659 11.7684C9.366 11.7408 9.19304 11.6063 9.10859 11.4125L9.10697 11.4088L6.41431 5.12H22.2889C22.53 5.12 22.6746 5.40276 22.5423 5.61556L21.2659 7.66878L20.6003 8.50115C18.9729 10.5362 16.6419 11.7995 14.1268 12.0094C12.9668 12.1063 11.8004 12.0752 10.6466 11.9167L9.56659 11.7684Z" fill="#FFFFFF" fill-opacity="0.2"/>
<path d="M6.95183 20.16C5.94725 20.16 5.13288 21.0196 5.13288 22.08C5.13288 23.1404 5.94725 24 6.95183 24C7.9564 24 8.77077 23.1404 8.77077 22.08C8.77077 21.0196 7.9564 20.16 6.95183 20.16Z" fill="#FFFFFF"/>
<path d="M6.95183 20.16C5.94725 20.16 5.13288 21.0196 5.13288 22.08C5.13288 23.1404 5.94725 24 6.95183 24C7.9564 24 8.77077 23.1404 8.77077 22.08C8.77077 21.0196 7.9564 20.16 6.95183 20.16Z" fill="#FFFFFF" fill-opacity="0.2"/>
<path d="M18.4718 22.08C18.4718 21.0196 19.2862 20.16 20.2908 20.16C21.2953 20.16 22.1097 21.0196 22.1097 22.08C22.1097 23.1404 21.2953 24 20.2908 24C19.2862 24 18.4718 23.1404 18.4718 22.08Z" fill="#FFFFFF"/>
<path d="M18.4718 22.08C18.4718 21.0196 19.2862 20.16 20.2908 20.16C21.2953 20.16 22.1097 21.0196 22.1097 22.08C22.1097 23.1404 21.2953 24 20.2908 24C19.2862 24 18.4718 23.1404 18.4718 22.08Z" fill="#FFFFFF" fill-opacity="0.2"/>
</svg>
