<svg width="14" height="13" viewBox="0 0 14 13" fill="none" xmlns="http://www.w3.org/2000/svg">
<path d="M9.84789 10.5006L9.8358 10.5001L9.82369 10.5001C9.81817 10.5001 9.81334 10.4989 9.8097 10.4972L7.17098 9.16384L6.94548 9.04989L6.71997 9.16384L4.0781 10.4988L4.07731 10.4992C4.07299 10.5014 4.06683 10.503 4.05992 10.5025C4.05344 10.502 4.04855 10.4999 4.04562 10.498L4.56224 7.69059L4.61167 7.422L4.4124 7.23526L2.29903 5.2548L5.24864 4.84024L5.50704 4.80392L5.62502 4.57117L6.92524 2.00617L6.92524 2.00617L6.92596 2.00474C6.92624 2.0044 6.92716 2.00341 6.92918 2.00219C6.93276 2.00002 6.93847 1.99805 6.94548 1.99805C6.95249 1.99805 6.95819 2.00002 6.96177 2.00219C6.96367 2.00334 6.9646 2.00429 6.96494 2.00468L6.96699 2.00866L8.28274 4.56866L8.40121 4.79916L8.65785 4.83524L11.6075 5.2498L9.4941 7.23026L9.29482 7.417L9.34425 7.68559L9.86186 10.4984C9.85818 10.4998 9.8534 10.5008 9.84789 10.5006ZM11.6549 5.24539V5.24539ZM9.86419 10.4979C9.86475 10.4966 9.86506 10.4966 9.86429 10.4973C9.86394 10.4977 9.86334 10.4982 9.86244 10.4988L9.86347 10.5003C9.86365 10.4994 9.8639 10.4986 9.86419 10.4979Z" stroke="#FFFFFF"/>
</svg>
