<svg width="32" height="32" viewBox="0 0 32 32" fill="none" xmlns="http://www.w3.org/2000/svg">
<g clip-path="url(#clip0_370_3760)">
<path d="M27.6364 0H4.36364C1.95367 0 0 1.95367 0 4.36364V27.6364C0 30.0463 1.95367 32 4.36364 32H27.6364C30.0463 32 32 30.0463 32 27.6364V4.36364C32 1.95367 30.0463 0 27.6364 0Z" fill="#1C8ADB"/>
<path d="M24.7164 8.27306L24.3855 8.39306L6.42549 14.864C6.29822 14.9033 6.1876 14.9838 6.11097 15.0928C6.03435 15.2018 5.99605 15.3331 6.00208 15.4662C6.00811 15.5992 6.05813 15.7266 6.1443 15.8282C6.23046 15.9298 6.34791 15.9999 6.47822 16.0276L11.1273 17.3003L11.9946 19.8458L12.8619 22.3912C12.9117 22.516 12.9912 22.6268 13.0935 22.7138C13.1959 22.8009 13.3179 22.8617 13.449 22.8909C13.5802 22.9201 13.7165 22.9168 13.8461 22.8814C13.9757 22.846 14.0947 22.7795 14.1928 22.6876L16.5946 20.4185L21.3109 23.6167C21.8873 24.0094 22.7091 23.7185 22.8564 23.0712L25.98 9.26942C26.1328 8.58578 25.4128 8.02396 24.7164 8.27306ZM22.4237 11.3367L14.3091 17.9694L13.9273 18.2821C13.8434 18.3486 13.7887 18.4451 13.7746 18.5512L13.6891 19.2567L13.4546 21.2385C13.4565 21.2626 13.4488 21.2865 13.4331 21.3049C13.4174 21.3233 13.3951 21.3348 13.3709 21.3367C13.3468 21.3386 13.3229 21.3309 13.3045 21.3152C13.2861 21.2995 13.2747 21.2772 13.2728 21.2531L12.6128 19.2731L11.9309 17.2458C11.9021 17.1547 11.9059 17.0563 11.9418 16.9677C11.9776 16.8791 12.0432 16.8058 12.1273 16.7603L20.5709 11.9203L22.16 11.0112C22.3909 10.8767 22.6273 11.1694 22.4237 11.3367Z" fill="white"/>
</g>
<defs>
<clipPath id="clip0_370_3760">
<rect width="32" height="32" fill="white"/>
</clipPath>
</defs>
</svg>
