<svg width="32" height="32" viewBox="0 0 32 32" fill="none" xmlns="http://www.w3.org/2000/svg">
<g clip-path="url(#clip0_370_3765)">
<path d="M26.2764 31.4545C19.4473 32.1831 12.56 32.1831 5.73091 31.4545C4.40476 31.3145 3.16668 30.7241 2.22308 29.7818C1.27947 28.8396 0.687362 27.6023 0.545458 26.2764C-0.183121 19.4473 -0.183121 12.56 0.545458 5.73091C0.685501 4.40476 1.27588 3.16668 2.21816 2.22308C3.16044 1.27947 4.39769 0.687362 5.72364 0.545458C12.5527 -0.183121 19.44 -0.183121 26.2691 0.545458C27.5952 0.685501 28.8333 1.27588 29.7769 2.21816C30.7205 3.16044 31.3126 4.39769 31.4545 5.72364C32.1831 12.5527 32.1831 19.44 31.4545 26.2691C31.3145 27.5952 30.7241 28.8333 29.7818 29.7769C28.8396 30.7205 27.6023 31.3126 26.2764 31.4545Z" fill="#6F3FAA"/>
<path d="M25.2419 11.1728V11.1491C25.0273 10.28 24.4673 9.38186 23.7328 8.6255C22.8746 7.73823 21.7818 7.04186 20.7382 6.81641H20.7164C17.6041 6.22005 14.4069 6.22005 11.2946 6.81641H11.2728C9.33458 7.23641 7.23094 9.26186 6.76185 11.1491V11.1728C6.1855 13.7893 6.1855 16.4999 6.76185 19.1164V19.1382C7.0964 20.4837 8.26003 21.8982 9.60185 22.7528C10.0401 23.0383 10.5171 23.2594 11.0182 23.4091V25.5146C11.0189 25.6829 11.0697 25.8471 11.1641 25.9864C11.2585 26.1257 11.3922 26.2337 11.5483 26.2967C11.7043 26.3597 11.8755 26.3748 12.0402 26.3401C12.2048 26.3054 12.3554 26.2225 12.4728 26.1019L14.6073 23.8837C15.0691 23.9091 15.5346 23.9237 15.9964 23.9237C17.5773 23.9232 19.1546 23.7734 20.7073 23.4764H20.7291C22.6619 23.0546 24.7673 21.0291 25.2328 19.1419V19.12C25.8126 16.503 25.8157 13.7911 25.2419 11.1728ZM23.5528 18.7273C23.24 19.9582 21.6437 21.491 20.3728 21.7728C18.722 22.089 17.042 22.2261 15.3618 22.1819C15.3455 22.1809 15.3291 22.1836 15.314 22.1899C15.2989 22.1962 15.2854 22.2059 15.2746 22.2182L13.7164 23.8182L12.0582 25.5182C12.0317 25.5463 11.9974 25.5657 11.9597 25.574C11.922 25.5823 11.8827 25.5791 11.8468 25.5648C11.811 25.5505 11.7802 25.5257 11.7586 25.4938C11.737 25.4618 11.7254 25.4241 11.7255 25.3855V21.8946C11.7255 21.8665 11.7157 21.8393 11.6978 21.8177C11.6799 21.7961 11.6549 21.7815 11.6273 21.7764C11.3622 21.7135 11.1067 21.6157 10.8673 21.4855C9.7873 20.9091 8.69821 19.7273 8.4473 18.7273C7.92759 16.3622 7.92759 13.9124 8.4473 11.5473C8.75821 10.3219 10.3637 8.79277 11.6255 8.50914C14.515 7.95625 17.4832 7.95625 20.3728 8.50914C21.0728 8.6655 21.8728 9.19823 22.4982 9.85277C23.0128 10.3855 23.4073 11 23.5528 11.5528C24.0717 13.9161 24.0717 16.364 23.5528 18.7273Z" fill="white"/>
<path d="M20.4183 18.9089C20.1821 19.448 19.776 19.895 19.2619 20.1816C19.1006 20.2501 18.9332 20.3031 18.7619 20.3398C18.5674 20.2816 18.3819 20.2416 18.2165 20.1707C16.8382 19.6344 15.5552 18.8799 14.4165 17.9362C14.0782 17.6477 13.7605 17.3361 13.4656 17.0035C12.7373 16.1647 12.1257 15.2315 11.6474 14.2289C11.4147 13.7544 11.2183 13.2635 11.0183 12.7744C10.8365 12.3289 11.1056 11.8653 11.3819 11.5325C11.6524 11.224 11.9852 10.9761 12.3583 10.8053C12.4896 10.7393 12.6398 10.7213 12.783 10.7546C12.9261 10.7878 13.0531 10.87 13.1419 10.9871C13.6065 11.509 14.0159 12.0775 14.3637 12.6835C14.4733 12.8597 14.5108 13.0713 14.4685 13.2744C14.4262 13.4775 14.3073 13.6566 14.1365 13.7744C14.0456 13.838 13.9547 13.9107 13.8765 13.9816C13.7994 14.0387 13.7329 14.1089 13.6801 14.1889C13.6345 14.2638 13.6069 14.3483 13.5993 14.4356C13.5917 14.523 13.6044 14.6109 13.6365 14.6925C13.9874 15.658 14.5201 16.4635 15.3165 17.0289C15.586 17.2195 15.8763 17.3787 16.1819 17.5035C16.3815 17.612 16.6057 17.6671 16.8328 17.6635C17.2292 17.6162 17.3601 17.178 17.6365 16.9525C17.7633 16.8487 17.9203 16.7885 18.0841 16.781C18.2479 16.7734 18.4097 16.8189 18.5456 16.9107C18.8401 17.0925 19.1237 17.298 19.4074 17.498C19.6879 17.6895 19.958 17.8958 20.2165 18.1162C20.3373 18.204 20.4237 18.3313 20.4606 18.4761C20.4974 18.6209 20.4825 18.774 20.4183 18.9089Z" fill="white"/>
<path d="M16.5218 10.196H16.2891C16.3636 10.1923 16.4418 10.196 16.5218 10.196Z" fill="white"/>
<path d="M20.5457 15.6452C20.3639 15.6452 20.2748 15.4907 20.2621 15.3216C20.2384 14.9888 20.2203 14.6543 20.1748 14.3234C20.0962 13.7651 19.9018 13.2294 19.6039 12.7507C19.2977 12.252 18.8903 11.8231 18.408 11.4917C17.9257 11.1604 17.3792 10.9339 16.8039 10.827C16.5421 10.7798 16.2748 10.7688 16.0112 10.7416C15.8439 10.7234 15.6239 10.7125 15.5875 10.5052C15.5821 10.465 15.5853 10.424 15.597 10.3851C15.6086 10.3462 15.6285 10.3102 15.6551 10.2796C15.6818 10.2489 15.7147 10.2243 15.7517 10.2074C15.7886 10.1905 15.8287 10.1817 15.8693 10.1816C15.9129 10.1791 15.9567 10.1791 16.0003 10.1816C16.795 10.1883 17.5758 10.3909 18.2735 10.7715C18.9712 11.1521 19.5643 11.6988 20.0003 12.3634C20.3444 12.899 20.5781 13.498 20.6875 14.1252C20.7566 14.5179 20.7821 14.9216 20.813 15.3216C20.8192 15.3608 20.817 15.4008 20.8065 15.4391C20.7961 15.4774 20.7776 15.5131 20.7523 15.5437C20.727 15.5743 20.6956 15.5991 20.6599 15.6166C20.6243 15.6342 20.5854 15.6439 20.5457 15.6452Z" fill="white"/>
<path d="M19.562 14.7968C19.561 14.8508 19.5537 14.9045 19.5402 14.9568C19.5243 15.0094 19.4926 15.0558 19.4494 15.0897C19.4063 15.1236 19.3537 15.1434 19.2988 15.1464C19.244 15.1494 19.1896 15.1354 19.143 15.1064C19.0964 15.0773 19.0599 15.0346 19.0384 14.9841C19.0184 14.9107 19.0092 14.8347 19.0111 14.7586C19.0153 14.352 18.9348 13.9489 18.7747 13.575C18.7384 13.495 18.6984 13.4132 18.6529 13.335C18.3927 12.8864 18.0064 12.5241 17.542 12.2932C17.2619 12.1609 16.9643 12.0691 16.6584 12.0205C16.5238 11.9986 16.3893 11.9859 16.2547 11.9677C16.2197 11.966 16.1854 11.9571 16.154 11.9415C16.1226 11.926 16.0947 11.9042 16.072 11.8774C16.0493 11.8506 16.0324 11.8195 16.0222 11.786C16.0121 11.7524 16.0089 11.7171 16.0129 11.6823C16.0129 11.6466 16.0205 11.6114 16.0351 11.5789C16.0497 11.5464 16.071 11.5174 16.0976 11.4937C16.1242 11.47 16.1555 11.4522 16.1895 11.4414C16.2235 11.4307 16.2593 11.4273 16.2947 11.4314C16.8286 11.452 17.3516 11.5885 17.8275 11.8314C18.4086 12.1238 18.8826 12.5921 19.182 13.1695C19.3507 13.5067 19.4636 13.869 19.5166 14.2423C19.5264 14.291 19.5336 14.3401 19.5384 14.3895C19.5475 14.4986 19.5511 14.6077 19.5602 14.7423C19.5602 14.755 19.562 14.7714 19.562 14.7968Z" fill="white"/>
<path d="M18.3162 14.5453C18.306 14.5914 18.2821 14.6334 18.2477 14.6658C18.2134 14.6982 18.1701 14.7196 18.1235 14.7271H18.0835C18.0239 14.731 17.9647 14.7153 17.9149 14.6825C17.865 14.6497 17.8272 14.6016 17.8072 14.5453C17.7958 14.5155 17.7885 14.4843 17.7853 14.4526C17.7758 14.3303 17.7575 14.2087 17.7308 14.089C17.6767 13.8465 17.539 13.6308 17.3417 13.4799C17.2463 13.4114 17.1399 13.3597 17.0272 13.3271C16.8835 13.2853 16.7326 13.2962 16.5908 13.2617C16.5207 13.2493 16.4584 13.2096 16.4175 13.1513C16.3766 13.093 16.3604 13.0209 16.3726 12.9508C16.3861 12.8836 16.4237 12.8236 16.4782 12.7821C16.5328 12.7406 16.6006 12.7204 16.669 12.7253C17.5017 12.7853 18.1235 13.1853 18.2835 14.0781C18.3 14.1609 18.3115 14.2447 18.3181 14.329C18.3282 14.4008 18.3276 14.4737 18.3162 14.5453Z" fill="white"/>
</g>
<defs>
<clipPath id="clip0_370_3765">
<rect width="32" height="32" fill="white"/>
</clipPath>
</defs>
</svg>
