<svg width="24" height="24" viewBox="0 0 24 24" fill="none" xmlns="http://www.w3.org/2000/svg">
<path fill-rule="evenodd" clip-rule="evenodd" d="M14.2278 4.4896C14.2885 3.51977 15.0927 2.76425 16.0645 2.76425H16.3079V2.43671C16.3079 2.19552 16.5034 2 16.7446 2C16.9858 2 17.1813 2.19552 17.1813 2.43671V2.76425H17.4248C18.3965 2.76425 19.2007 3.51977 19.2614 4.4896L19.3579 6.03271C19.3947 6.62105 19.5922 7.18801 19.929 7.67186C20.2332 8.10904 19.9623 8.71283 19.4335 8.77629L17.9456 8.95484V9.42414C17.9456 10.0874 17.4079 10.6251 16.7446 10.6251C16.0813 10.6251 15.5436 10.0874 15.5436 9.42414V8.95484L14.0557 8.77629C13.5269 8.71283 13.256 8.10904 13.5603 7.67186C13.897 7.18801 14.0945 6.62105 14.1313 6.03271L14.2278 4.4896ZM16.1987 9.42414C16.1987 9.72563 16.4431 9.97004 16.7446 9.97004C17.0461 9.97004 17.2905 9.72563 17.2905 9.42414V9.09661H16.1987V9.42414Z" fill="#9E9E9E"/>
<path d="M17 14.1426V16.1426C17 18.971 17 20.3852 16.1213 21.2639C15.2426 22.1426 13.8284 22.1426 11 22.1426H9C6.17157 22.1426 4.75736 22.1426 3.87868 21.2639C3 20.3852 3 18.971 3 16.1426V10.1426C3 7.31415 3 5.89994 3.87868 5.02126C4.75736 4.14258 6.17157 4.14258 9 4.14258H10" stroke="#9E9E9E" stroke-width="1.6" stroke-linecap="round"/>
<path d="M7 14.1426L13 14.1426" stroke="#9E9E9E" stroke-width="1.6" stroke-linecap="round"/>
<path d="M7 10.1426L11 10.1426" stroke="#9E9E9E" stroke-width="1.6" stroke-linecap="round"/>
<path d="M7 18.1426L11 18.1426" stroke="#9E9E9E" stroke-width="1.6" stroke-linecap="round"/>
</svg>
